<svg width="25" height="30" viewBox="0 0 25 30" fill="none" xmlns="http://www.w3.org/2000/svg">
<path d="M24.4752 23.3792C24.0428 24.398 23.5084 25.3695 22.8806 26.2787C22.0419 27.4893 21.3532 28.3258 20.8253 28.7915C20.0053 29.5522 19.1244 29.9437 18.1827 29.9658C17.508 29.9658 16.6927 29.7716 15.7431 29.377C14.7904 28.984 13.9158 28.7915 13.1146 28.7915C12.2759 28.7915 11.3763 28.984 10.4126 29.377C9.45055 29.7716 8.67277 29.9784 8.07772 29.9973C7.17655 30.0368 6.27538 29.6359 5.37733 28.7915C4.80415 28.2864 4.08727 27.4183 3.22671 26.1903C2.30524 24.8818 1.54776 23.3586 0.95427 21.6271C0.318611 19.7536 0 17.9416 0 16.1864C0 14.1771 0.4295 12.4425 1.29006 10.9903C1.94095 9.84991 2.87147 8.89809 3.992 8.22658C5.09694 7.55682 6.35829 7.19619 7.64666 7.18169C8.36509 7.18169 9.30687 7.40582 10.4735 7.84777C11.6402 8.28972 12.3899 8.51385 12.7163 8.51385C12.9631 8.51385 13.7924 8.25026 15.2043 7.72781C16.5365 7.24324 17.661 7.04279 18.5825 7.12171C21.0814 7.32532 22.9571 8.31971 24.205 10.1128C21.9716 11.4812 20.8674 13.3958 20.8893 15.8534C20.908 17.768 21.5968 19.3606 22.9462 20.6249C23.5428 21.2018 24.2389 21.6635 25 21.987C24.8344 22.4716 24.6595 22.934 24.4752 23.3792ZM18.748 0.601368C18.748 2.10084 18.2045 3.50245 17.1253 4.79831C15.8196 6.33882 14.2422 7.23062 12.532 7.09014C12.5096 6.90158 12.4987 6.71182 12.4992 6.52192C12.4992 5.08085 13.1177 3.54033 14.2219 2.2792C14.7717 1.64153 15.4714 1.10961 16.3194 0.686601C17.1659 0.269905 17.9656 0.0394598 18.7184 0C18.7387 0.202034 18.748 0.40249 18.748 0.601368Z" fill="#5F0766"/>
</svg>
