<svg width="644" height="383" viewBox="0 0 644 383" fill="none" xmlns="http://www.w3.org/2000/svg">
<path d="M1037.2 111.604C580.833 -266.98 373.5 384 27.3335 156.02" stroke="#5F0766" stroke-width="0.8" stroke-dasharray="5 5"/>
<path d="M7.46778 137.162C11.0777 133.267 17.1838 133.036 21.0741 136.641C26.7886 141.89 25.1852 153.085 25.1271 153.53C25.1271 153.53 13.647 156.069 7.98446 150.773C4.08969 147.163 3.8579 141.057 7.46778 137.162ZM18.0634 146.983C19.872 145.031 19.7564 141.986 17.805 140.177C15.8537 138.369 12.8083 138.484 10.9996 140.436C9.19102 142.387 9.30663 145.432 11.258 147.241C13.2093 149.05 16.2547 148.934 18.0634 146.983Z" fill="#5F0766"/>
</svg>
