<svg width="995" height="653" viewBox="0 0 995 653" fill="none" xmlns="http://www.w3.org/2000/svg">
<path d="M-3.00006 399.5C304.371 -66.5839 1103 705 946.5 240" stroke="#5F0766" stroke-width="0.8" stroke-dasharray="5 5"/>
<path d="M935.412 210.774C930.377 212.462 927.654 217.932 929.34 222.962C931.773 230.33 942.635 233.474 943.065 233.604C943.065 233.604 950.102 224.185 947.605 216.845C945.917 211.81 940.447 209.087 935.412 210.774ZM940.004 224.472C937.481 225.318 934.753 223.959 933.907 221.437C933.062 218.914 934.42 216.186 936.943 215.34C939.465 214.495 942.194 215.853 943.039 218.376C943.885 220.898 942.526 223.626 940.004 224.472Z" fill="#FFC200"/>
</svg>
