<svg width="24" height="21" viewBox="0 0 24 21" fill="none" xmlns="http://www.w3.org/2000/svg">
<path d="M23.7917 5.16952C23.6844 5.01443 23.5411 4.88767 23.3741 4.8001C23.2071 4.71252 23.0213 4.66674 22.8327 4.66668H6.88786L5.54153 1.43501C5.365 1.00943 5.06607 0.645859 4.68265 0.390385C4.29923 0.134911 3.84859 -0.000957882 3.38785 5.08346e-06H0.666016V2.33334H3.38785L8.92253 15.6159C9.01118 15.8284 9.16074 16.0099 9.35236 16.1376C9.54398 16.2653 9.7691 16.3334 9.99937 16.3334H19.3327C19.8192 16.3334 20.2544 16.0312 20.4259 15.5774L23.9259 6.24402C23.992 6.06741 24.0144 5.8774 23.991 5.69026C23.9677 5.50312 23.8993 5.32444 23.7917 5.16952ZM18.5242 14H10.7775L7.86086 7.00002H21.1492L18.5242 14Z" fill="#5F0766"/>
<path d="M10.583 21C11.5495 21 12.333 20.2165 12.333 19.25C12.333 18.2835 11.5495 17.5 10.583 17.5C9.61651 17.5 8.83301 18.2835 8.83301 19.25C8.83301 20.2165 9.61651 21 10.583 21Z" fill="#5F0766"/>
<path d="M18.749 21C19.7155 21 20.499 20.2165 20.499 19.25C20.499 18.2835 19.7155 17.5 18.749 17.5C17.7825 17.5 16.999 18.2835 16.999 19.25C16.999 20.2165 17.7825 21 18.749 21Z" fill="#5F0766"/>
</svg>
