<svg width="20" height="20" viewBox="0 0 20 20" fill="none" xmlns="http://www.w3.org/2000/svg">
<path d="M16.305 2.235C14.6195 0.859935 12.53 0.0749023 10.356 0C10.5673 1.24705 10.5131 2.52465 10.1969 3.74931C9.88067 4.97397 9.3096 6.11812 8.521 7.107L9.977 8.563L16.305 2.235ZM5.678 7.092L2.235 3.649C1.1294 5.00387 0.400872 6.62649 0.123 8.353C1.08561 8.5435 2.07749 8.52969 3.03442 8.31246C3.99135 8.09523 4.89199 7.67944 5.678 7.092ZM17.719 3.649L11.391 9.977L12.847 11.433C13.836 10.6446 14.9801 10.0736 16.2048 9.75741C17.4294 9.44121 18.7069 9.3869 19.954 9.598C19.8791 7.42405 19.0941 5.33449 17.719 3.649ZM19.831 11.601C18.8684 11.4105 17.8765 11.4243 16.9196 11.6415C15.9626 11.8588 15.062 12.2746 14.276 12.862L17.719 16.305C18.8252 14.9505 19.5538 13.3277 19.831 11.601ZM7.092 5.678C7.67944 4.89199 8.09523 3.99135 8.31246 3.03442C8.52969 2.07749 8.5435 1.08561 8.353 0.123C6.62636 0.400415 5.00362 1.12899 3.649 2.235L7.092 5.678ZM11.601 19.831C13.3274 19.5535 14.9501 18.8253 16.305 17.72L12.862 14.277C12.2745 15.0628 11.8586 15.9632 11.6414 16.92C11.4242 17.8768 11.4104 18.8686 11.601 19.831ZM9.977 11.391L3.649 17.719C5.33449 19.0941 7.42405 19.8791 9.598 19.954C9.3867 18.707 9.44093 17.4293 9.75713 16.2047C10.0733 14.98 10.6444 13.8359 11.433 12.847L9.977 11.391ZM2.235 16.305L8.563 9.977L7.107 8.521C6.11803 9.30944 4.97387 9.8804 3.74924 10.1966C2.52461 10.5128 1.24705 10.5671 0 10.356C0.0749023 12.53 0.859935 14.6195 2.235 16.305Z" fill="black"/>
</svg>
