<svg width="21" height="19" viewBox="0 0 21 19" fill="none" xmlns="http://www.w3.org/2000/svg">
<path d="M5.5 12C3.92 12 2.597 13.06 2.163 14.5H0V16.5H2.163C2.597 17.94 3.92 19 5.5 19C7.08 19 8.403 17.94 8.837 16.5H20V14.5H8.837C8.403 13.06 7.08 12 5.5 12ZM5.5 17C4.673 17 4 16.327 4 15.5C4 14.673 4.673 14 5.5 14C6.327 14 7 14.673 7 15.5C7 16.327 6.327 17 5.5 17ZM14.5 6C12.92 6 11.597 7.06 11.163 8.5H0V10.5H11.163C11.597 11.94 12.92 13 14.5 13C16.08 13 17.403 11.94 17.837 10.5H20V8.5H17.837C17.403 7.06 16.08 6 14.5 6ZM14.5 11C13.673 11 13 10.327 13 9.5C13 8.673 13.673 8 14.5 8C15.327 8 16 8.673 16 9.5C16 10.327 15.327 11 14.5 11Z" fill="white"/>
<path d="M10.837 2.5C10.403 1.06 9.08 0 7.5 0C5.92 0 4.597 1.06 4.163 2.5H0V4.5H4.163C4.597 5.94 5.92 7 7.5 7C9.08 7 10.403 5.94 10.837 4.5H20.125V2.5H10.837ZM7.5 5C6.673 5 6 4.327 6 3.5C6 2.673 6.673 2 7.5 2C8.327 2 9 2.673 9 3.5C9 4.327 8.327 5 7.5 5Z" fill="white"/>
</svg>
