<svg width="560" height="371" viewBox="0 0 560 371" fill="none" xmlns="http://www.w3.org/2000/svg">
<path d="M497.766 134.524V339.895H193.894V134.524H497.766Z" fill="#1E0020"/>
<path d="M497.766 134.524V339.895H193.894V134.524H497.766Z" fill="#1E0020"/>
<path d="M287.403 340.588V237.553L345.425 211.045L403.446 237.553V340.588H287.403Z" fill="#FFC200"/>
<path d="M60.7208 340.137V246.406L138.871 210.305L217.022 246.406V340.137H60.7208Z" fill="#FFC200"/>
<path d="M346.563 201.939C345.838 201.619 345.012 201.619 344.288 201.939L278.889 230.817C277.869 231.267 277.21 232.277 277.21 233.392V239.641C277.21 240.029 277.406 240.393 277.733 240.605C278.059 240.816 278.47 240.851 278.826 240.693L344.288 211.789C345.012 211.469 345.838 211.469 346.563 211.789L412.024 240.695C412.381 240.852 412.792 240.818 413.117 240.606C413.445 240.394 413.64 240.031 413.64 239.642V233.394C413.64 232.279 412.982 231.269 411.962 230.818L346.563 201.939Z" fill="#7D7D7D"/>
<path d="M138.22 211.308C138.699 211.096 139.245 211.096 139.724 211.308L195.29 235.843C195.521 235.945 195.787 235.924 195.998 235.786C196.21 235.649 196.337 235.414 196.337 235.161V231.139C196.337 230.401 195.902 229.733 195.228 229.436L139.724 204.927C139.245 204.716 138.699 204.716 138.22 204.927L83.0908 229.269C82.4166 229.567 81.9812 230.235 81.9812 230.972V234.995C81.9812 235.247 82.1084 235.482 82.3197 235.62C82.5304 235.757 82.7966 235.779 83.0271 235.677L138.22 211.308Z" fill="#7D7D7D"/>
<path d="M83.1539 282.153C83.1539 281.063 84.0361 280.181 85.1254 280.181H192.625C193.714 280.181 194.596 281.063 194.596 282.153V340.138H199.102V282.153C199.102 278.581 196.197 275.676 192.625 275.676H85.1254C81.5546 275.676 78.6487 278.581 78.6487 282.153V340.138H83.1539V282.153Z" fill="#F8DF91"/>
<path d="M83.1539 340.138V282.153C83.1539 281.063 84.036 280.181 85.1253 280.181H192.625C193.713 280.181 194.596 281.063 194.596 282.153V340.138H83.1539Z" fill="#D69D67"/>
<path d="M194.202 295.716H83.1539V291.211H194.202V295.716Z" fill="#BD8149"/>
<path d="M194.202 312.862H83.1539V308.357H194.202V312.862Z" fill="#BD8149"/>
<path d="M194.202 330.008H83.1539V325.503H194.202V330.008Z" fill="#BD8149"/>
<path d="M320.77 340.588V255.571C320.77 254.482 321.652 253.6 322.741 253.6H368.11C369.2 253.6 370.082 254.482 370.082 255.571V340.588H320.77Z" fill="#D69D67"/>
<path d="M361.63 303.391C361.63 306.868 358.811 309.688 355.334 309.688C351.856 309.688 349.036 306.868 349.036 303.391C349.036 299.914 351.856 297.094 355.334 297.094C358.811 297.094 361.63 299.914 361.63 303.391Z" fill="#F8DF91"/>
<path d="M131.855 250.46C131.855 254.337 134.999 257.471 138.871 257.471C142.742 257.471 145.882 254.337 145.882 250.46C145.882 246.588 142.742 243.446 138.871 243.446C134.999 243.446 131.855 246.588 131.855 250.46Z" fill="white"/>
<path d="M57.0333 327.979C56.2594 327.979 55.5015 328.059 54.7626 328.171C51.4967 321.296 44.507 316.533 36.3895 316.533C28.1775 316.533 21.1168 321.41 17.9076 328.419C16.7799 328.142 15.6105 327.979 14.4014 327.979C7.13448 327.979 1.11544 333.305 0 340.16H71.4318C70.2899 333.487 64.5339 327.979 57.0333 327.979Z" fill="#7ED595"/>
<path d="M426.948 43.0058H459.273V17.209H426.948V43.0058Z" fill="#FFC200"/>
<path d="M430.227 1.97148C430.227 0.883019 430.756 0 431.409 0H455.527C456.18 0 456.71 0.883019 456.71 1.97148V15.688C456.71 16.7774 456.18 17.6595 455.527 17.6595H431.409C430.756 17.6595 430.227 16.7774 430.227 15.688V1.97148Z" fill="#7D7D7D"/>
<path d="M180.23 135.344C179.429 135.344 178.687 134.946 178.245 134.279C177.804 133.613 177.725 132.769 178.038 132.035L214.936 45.2863C215.756 43.359 217.653 42.1065 219.745 42.1065H471.1C473.198 42.1065 475.09 43.359 475.912 45.2863L512.81 132.035C513.123 132.769 513.045 133.613 512.605 134.279C512.165 134.946 511.419 135.344 510.62 135.344H180.23Z" fill="#7D7D7D"/>
<path d="M254.1 293.239C254.1 293.551 253.848 293.804 253.535 293.804H247.957C247.645 293.804 247.392 293.551 247.392 293.239V281.307C247.392 280.996 247.645 280.742 247.957 280.742H253.535C253.848 280.742 254.1 280.996 254.1 281.307V293.239Z" fill="white"/>
</svg>
