<svg width="19" height="19" viewBox="0 0 19 19" fill="none" xmlns="http://www.w3.org/2000/svg">
<path d="M18.6 5.324C18.5899 4.56662 18.4482 3.81678 18.181 3.108C17.9494 2.51015 17.5956 1.9672 17.1422 1.51383C16.6888 1.06046 16.1459 0.706651 15.548 0.475C14.8484 0.212357 14.1092 0.0703413 13.362 0.0550001C12.4 0.0120001 12.095 0 9.65302 0C7.21102 0 6.89802 6.70552e-08 5.94302 0.0550001C5.19618 0.0704541 4.45737 0.212468 3.75802 0.475C3.16008 0.706489 2.61705 1.06024 2.16366 1.51363C1.71027 1.96702 1.35651 2.51006 1.12502 3.108C0.861855 3.80713 0.720148 4.54611 0.706024 5.293C0.663024 6.256 0.650024 6.561 0.650024 9.003C0.650024 11.445 0.650024 11.757 0.706024 12.713C0.721024 13.461 0.862024 14.199 1.12502 14.9C1.3569 15.4978 1.71092 16.0406 2.16446 16.4938C2.618 16.947 3.16109 17.3006 3.75902 17.532C4.45646 17.8052 5.1954 17.9574 5.94403 17.982C6.90702 18.025 7.21203 18.038 9.65403 18.038C12.096 18.038 12.409 18.038 13.364 17.982C14.1112 17.9673 14.8504 17.8256 15.55 17.563C16.1477 17.3311 16.6905 16.9772 17.1439 16.5238C17.5972 16.0705 17.9511 15.5277 18.183 14.93C18.446 14.23 18.587 13.492 18.602 12.743C18.645 11.781 18.658 11.476 18.658 9.033C18.656 6.591 18.656 6.281 18.6 5.324ZM9.64703 13.621C7.09303 13.621 5.02402 11.552 5.02402 8.998C5.02402 6.444 7.09303 4.375 9.64703 4.375C10.8731 4.375 12.049 4.86207 12.916 5.72905C13.783 6.59603 14.27 7.7719 14.27 8.998C14.27 10.2241 13.783 11.4 12.916 12.267C12.049 13.1339 10.8731 13.621 9.64703 13.621ZM14.454 5.282C14.3124 5.28213 14.1722 5.25434 14.0413 5.20021C13.9105 5.14608 13.7916 5.06668 13.6915 4.96655C13.5913 4.86643 13.5119 4.74754 13.4578 4.61669C13.4037 4.48584 13.3759 4.3456 13.376 4.204C13.376 4.0625 13.4039 3.92239 13.458 3.79166C13.5122 3.66093 13.5916 3.54215 13.6916 3.44209C13.7917 3.34204 13.9105 3.26267 14.0412 3.20852C14.1719 3.15437 14.312 3.1265 14.4535 3.1265C14.595 3.1265 14.7351 3.15437 14.8659 3.20852C14.9966 3.26267 15.1154 3.34204 15.2154 3.44209C15.3155 3.54215 15.3949 3.66093 15.449 3.79166C15.5032 3.92239 15.531 4.0625 15.531 4.204C15.531 4.8 15.049 5.282 14.454 5.282Z" fill="#5F0766"/>
<path d="M9.64704 12.0011C11.3056 12.0011 12.65 10.6566 12.65 8.99812C12.65 7.33961 11.3056 5.99512 9.64704 5.99512C7.98853 5.99512 6.64404 7.33961 6.64404 8.99812C6.64404 10.6566 7.98853 12.0011 9.64704 12.0011Z" fill="#5F0766"/>
</svg>
