<svg width="14" height="20" viewBox="0 0 14 20" fill="none" xmlns="http://www.w3.org/2000/svg">
<path d="M12.1677 6H7.99971L8.80571 1.165C8.82969 1.02165 8.82213 0.874793 8.78357 0.734659C8.745 0.594526 8.67635 0.464483 8.5824 0.353588C8.48845 0.242693 8.37145 0.15361 8.23956 0.0925446C8.10767 0.0314788 7.96405 -0.000102432 7.81871 2.49587e-07H2.66671C2.43015 6.96976e-05 2.20127 0.0839999 2.02075 0.236878C1.84022 0.389756 1.71974 0.601682 1.68071 0.835L0.0137064 10.835C-0.0102614 10.9783 -0.00272892 11.125 0.0357792 11.2651C0.0742873 11.4052 0.142847 11.5352 0.236688 11.646C0.33053 11.7569 0.447401 11.846 0.579171 11.9071C0.710942 11.9683 0.854447 12 0.999706 12H4.99971V20L13.0097 7.541C13.1069 7.38987 13.1616 7.21535 13.168 7.03577C13.1745 6.85619 13.1324 6.6782 13.0462 6.52051C12.9601 6.36282 12.833 6.23126 12.6784 6.13967C12.5238 6.04807 12.3474 5.99983 12.1677 6Z" fill="black"/>
</svg>
