<svg width="19" height="18" viewBox="0 0 19 18" fill="none" xmlns="http://www.w3.org/2000/svg">
<path d="M17.6582 0H1.6582C1.39299 0 1.13863 0.105357 0.951096 0.292893C0.76356 0.48043 0.658203 0.734784 0.658203 1V17C0.658203 17.2652 0.76356 17.5196 0.951096 17.7071C1.13863 17.8946 1.39299 18 1.6582 18H17.6582C17.9234 18 18.1778 17.8946 18.3653 17.7071C18.5528 17.5196 18.6582 17.2652 18.6582 17V1C18.6582 0.734784 18.5528 0.48043 18.3653 0.292893C18.1778 0.105357 17.9234 0 17.6582 0ZM5.9972 15.337H3.3252V6.747H5.9972V15.337ZM4.6612 5.574C4.25065 5.574 3.85691 5.41091 3.5666 5.1206C3.2763 4.8303 3.1132 4.43655 3.1132 4.026C3.1132 3.61544 3.2763 3.22171 3.5666 2.9314C3.85691 2.64109 4.25065 2.478 4.6612 2.478C5.07176 2.478 5.4655 2.64109 5.7558 2.9314C6.04611 3.22171 6.2092 3.61544 6.2092 4.026C6.2092 4.43655 6.04611 4.8303 5.7558 5.1206C5.4655 5.41091 5.07176 5.574 4.6612 5.574ZM15.9962 15.337H13.3272V11.16C13.3272 10.164 13.3092 8.883 11.9392 8.883C10.5492 8.883 10.3382 9.969 10.3382 11.09V15.338H7.6712V6.748H10.2312V7.922H10.2682C10.6232 7.247 11.4952 6.535 12.7922 6.535C15.4962 6.535 15.9952 8.313 15.9952 10.627V15.337H15.9962Z" fill="black"/>
</svg>
