<svg width="19" height="18" viewBox="0 0 19 18" fill="none" xmlns="http://www.w3.org/2000/svg">
<path d="M17.658 0H1.65796C1.39274 0 1.13839 0.105357 0.950852 0.292893C0.763316 0.48043 0.657959 0.734784 0.657959 1V17C0.657959 17.2652 0.763316 17.5196 0.950852 17.7071C1.13839 17.8946 1.39274 18 1.65796 18H17.658C17.9232 18 18.1775 17.8946 18.3651 17.7071C18.5526 17.5196 18.658 17.2652 18.658 17V1C18.658 0.734784 18.5526 0.48043 18.3651 0.292893C18.1775 0.105357 17.9232 0 17.658 0ZM5.99696 15.337H3.32496V6.747H5.99696V15.337ZM4.66096 5.574C4.2504 5.574 3.85666 5.41091 3.56636 5.1206C3.27605 4.8303 3.11296 4.43655 3.11296 4.026C3.11296 3.61544 3.27605 3.22171 3.56636 2.9314C3.85666 2.64109 4.2504 2.478 4.66096 2.478C5.07151 2.478 5.46525 2.64109 5.75556 2.9314C6.04587 3.22171 6.20896 3.61544 6.20896 4.026C6.20896 4.43655 6.04587 4.8303 5.75556 5.1206C5.46525 5.41091 5.07151 5.574 4.66096 5.574ZM15.996 15.337H13.327V11.16C13.327 10.164 13.309 8.883 11.939 8.883C10.549 8.883 10.338 9.969 10.338 11.09V15.338H7.67096V6.748H10.231V7.922H10.268C10.623 7.247 11.495 6.535 12.792 6.535C15.496 6.535 15.995 8.313 15.995 10.627V15.337H15.996Z" fill="#5F0766"/>
</svg>
