<svg width="116" height="38" viewBox="0 0 116 38" fill="none" xmlns="http://www.w3.org/2000/svg">
<g clip-path="url(#clip0_50_20)">
<path d="M40.3575 3.23437C39.9454 2.34279 39.2939 1.58317 38.4758 1.04009C37.6577 0.497021 36.705 0.19181 35.7238 0.158449C23.4145 -0.294609 15.5684 0.225494 12.4068 1.69844C10.6306 2.52621 9.06097 3.73926 7.81171 5.24955C6.56245 6.75984 5.66494 8.52947 5.18432 10.43C4.7037 12.3306 4.65204 14.3143 5.03307 16.2373C5.41411 18.1603 6.21829 19.9743 7.38724 21.5477C5.49205 23.7419 3.40598 26.3044 1.12904 29.2354C0.526024 30.0103 0.148536 30.9366 0.0381903 31.9124C-0.0721557 32.8882 0.0889249 33.8756 0.503676 34.7656C0.918427 35.6556 1.57074 36.4138 2.38872 36.9566C3.20669 37.4993 4.15856 37.8055 5.13941 37.8415C17.4487 38.2925 25.2948 37.7745 28.4543 36.2995C31.6249 34.816 34.0778 32.1347 35.275 28.8439C36.4722 25.5532 36.316 21.9216 34.8405 18.746C34.4623 17.9392 34.0045 17.1721 33.4739 16.4564C35.3691 14.2649 37.4558 11.7023 39.7341 8.76859C40.3403 7.9945 40.7197 7.0671 40.8297 6.08987C40.9398 5.11265 40.7763 4.12404 40.3575 3.23437ZM37.5391 7.05387C35.3968 9.80676 33.3927 12.2651 31.5672 14.3881C30.1519 13.1536 28.4907 12.2339 26.6935 11.69C24.8963 11.1461 23.0042 10.9903 21.1423 11.233C20.5719 10.4957 19.7613 9.98173 18.8514 9.78056C17.9414 9.5794 16.9898 9.70372 16.1621 10.1319C15.3343 10.5601 14.6827 11.2651 14.3207 12.1242C13.9587 12.9833 13.9091 13.9423 14.1806 14.8342C14.4522 15.7261 15.0276 16.4945 15.8068 17.0059C16.586 17.5172 17.5197 17.7391 18.4455 17.6329C19.3713 17.5268 20.2306 17.0992 20.8739 16.4247C21.5173 15.7502 21.9039 14.8714 21.9667 13.9412C23.3644 13.8221 24.7718 13.9852 26.1053 14.4208C27.4388 14.8563 28.6712 15.5555 29.7295 16.4767C30.824 17.4345 31.7059 18.611 32.3185 19.9305C33.4837 22.4367 33.6074 25.303 32.6625 27.9004C31.7176 30.4977 29.7813 32.6139 27.2786 33.7843C24.6389 35.0175 16.606 35.4848 5.24093 35.0663C4.77181 35.0501 4.31631 34.9044 3.92481 34.6453C3.53331 34.3862 3.22109 34.0238 3.02268 33.5981C2.82427 33.1725 2.74741 32.7003 2.8006 32.2336C2.8538 31.767 3.03497 31.3242 3.32408 30.9542C5.4643 28.2013 7.47049 25.741 9.29597 23.62C10.7111 24.8541 12.372 25.7736 14.1688 26.3175C15.9655 26.8614 17.8573 27.0174 19.7189 26.7751C20.2863 27.5161 21.0954 28.0347 22.0055 28.2404C22.9156 28.4462 23.8689 28.3262 24.6997 27.9013C25.5305 27.4764 26.1861 26.7736 26.5524 25.915C26.9187 25.0564 26.9725 24.0965 26.7046 23.2024C26.4366 22.3082 25.8637 21.5363 25.0857 21.0211C24.3077 20.5058 23.3737 20.2798 22.4464 20.3824C21.519 20.485 20.6569 20.9096 20.0102 21.5825C19.3634 22.2553 18.9729 23.1337 18.9066 24.0649C17.5087 24.1847 16.101 24.0222 14.7671 23.587C13.4332 23.1518 12.2003 22.4527 11.1418 21.5314C10.4317 20.9125 9.80936 20.1996 9.29191 19.4124C8.46833 18.1618 7.92352 16.7485 7.69451 15.2685C7.4655 13.7884 7.55766 12.2764 7.96473 10.8352C8.3718 9.39402 9.08423 8.0574 10.0536 6.91622C11.023 5.77504 12.2265 4.85606 13.5825 4.22175C16.2222 2.99057 24.2572 2.52329 35.6222 2.93978C36.091 2.95712 36.546 3.1036 36.9369 3.3631C37.3278 3.62259 37.6396 3.98502 37.8378 4.41046C38.036 4.83589 38.113 5.30782 38.0603 5.77424C38.0076 6.24065 37.8272 6.68346 37.5391 7.05387Z" fill="url(#paint0_linear_50_20)"/>
<path d="M44.8956 15.8143C44.8982 15.5616 44.9991 15.3199 45.1769 15.1405C45.3547 14.9611 45.5954 14.8581 45.8479 14.8533C45.9999 14.8643 46.148 14.9059 46.2834 14.9757C46.4188 15.0456 46.5387 15.1422 46.6358 15.2597C47.5455 16.1888 48.5255 16.6527 49.576 16.6513C51.1869 16.6513 51.9924 16.0981 51.9924 14.9915C51.9964 14.7259 51.9184 14.4655 51.769 14.2459C51.6096 14.0207 51.4014 13.8346 51.1599 13.7014C50.8813 13.5433 50.5907 13.4074 50.2908 13.2951C49.9645 13.1732 49.6207 13.0533 49.2593 12.9355C48.8978 12.8196 48.5384 12.6937 48.179 12.5637C47.8226 12.4322 47.4787 12.269 47.1515 12.0761C46.8414 11.8891 46.5545 11.6661 46.2967 11.4117C46.0303 11.1504 45.8226 10.8353 45.6875 10.4873C45.534 10.0882 45.4582 9.66341 45.4641 9.23582C45.452 8.79084 45.5386 8.34871 45.7177 7.94122C45.8967 7.53373 46.1638 7.17099 46.4997 6.8791C47.1969 6.25877 48.221 5.94928 49.572 5.95064C50.4068 5.93823 51.2355 6.09439 52.0086 6.40979C52.6543 6.65445 53.2175 7.07709 53.6331 7.62878C53.7475 7.79648 53.809 7.99462 53.8097 8.19764C53.8112 8.32358 53.7868 8.44848 53.7379 8.56454C53.6889 8.68059 53.6166 8.78531 53.5255 8.87215C53.437 8.96191 53.3313 9.03283 53.2148 9.08067C53.0982 9.1285 52.9732 9.15225 52.8473 9.15049C52.5507 9.12083 52.2761 8.9809 52.0777 8.75838C51.7578 8.45953 51.3825 8.22624 50.973 8.07168C50.5268 7.89357 50.0504 7.80321 49.5699 7.80553C48.8755 7.80553 48.3611 7.94098 48.0267 8.21186C47.8694 8.33001 47.742 8.4835 47.6549 8.65995C47.5678 8.83641 47.5233 9.03089 47.5252 9.22769C47.5212 9.46852 47.5992 9.70354 47.7465 9.89407C47.9113 10.1004 48.1192 10.2682 48.3557 10.3857C48.6381 10.5333 48.9305 10.661 49.2308 10.7677C49.5557 10.8855 49.9009 11.0034 50.2624 11.1232C50.6238 11.2431 50.9832 11.3731 51.3446 11.5092C51.7027 11.6459 52.0468 11.8166 52.3721 12.0192C52.689 12.2129 52.9803 12.4456 53.2392 12.712C53.506 12.991 53.7133 13.3214 53.8483 13.6831C54.0014 14.0985 54.0764 14.5386 54.0697 14.9813C54.0697 16.0865 53.6852 16.95 52.9163 17.5717C52.1474 18.1934 51.0326 18.5056 49.572 18.5083C48.6219 18.5242 47.6824 18.308 46.8348 17.8785C46.11 17.5322 45.4914 16.9976 45.0438 16.3303C44.945 16.1765 44.8935 15.9971 44.8956 15.8143Z" fill="black" stroke="#231F20" stroke-width="0.5" stroke-miterlimit="10"/>
<path d="M55.5321 17.4722V10.9445C55.5321 10.6881 55.6339 10.4421 55.8152 10.2607C55.9964 10.0794 56.2423 9.97748 56.4986 9.97748C56.7549 9.97748 57.0008 10.0794 57.1821 10.2607C57.3633 10.4421 57.4652 10.6881 57.4652 10.9445C57.6902 10.6222 57.9925 10.3617 58.3444 10.1867C58.7852 9.96725 59.2736 9.86045 59.7658 9.87589C60.3366 9.85229 60.9057 9.95423 61.4329 10.1745C61.8383 10.361 62.1806 10.6618 62.4177 11.04C62.6938 10.6668 63.057 10.3669 63.4756 10.1664C63.949 9.95994 64.4621 9.86073 64.9782 9.87589C65.4032 9.86875 65.8266 9.92839 66.2331 10.0526C66.5571 10.1476 66.8588 10.3064 67.1205 10.5199C67.3492 10.7169 67.5387 10.9554 67.6789 11.2229C67.8211 11.487 67.9243 11.7703 67.9855 12.064C68.046 12.369 68.0753 12.6794 68.0728 12.9904V17.4722C68.075 17.5962 68.0507 17.7192 68.0017 17.833C67.9527 17.9468 67.88 18.0489 67.7885 18.1325C67.6036 18.308 67.357 18.4036 67.1022 18.3987C66.9732 18.4043 66.8444 18.3836 66.7236 18.3378C66.6028 18.2921 66.4926 18.2222 66.3996 18.1325C66.3129 18.0463 66.2448 17.9433 66.1994 17.8297C66.154 17.7161 66.1323 17.5945 66.1357 17.4722V13.348C66.1357 12.1994 65.6111 11.6251 64.562 11.6251C63.9447 11.6251 63.4919 11.7768 63.2035 12.0802C62.9004 12.4242 62.745 12.8739 62.771 13.3317V17.4722C62.7732 17.5962 62.7489 17.7192 62.6999 17.833C62.6509 17.9468 62.5782 18.0489 62.4867 18.1325C62.3015 18.3076 62.0552 18.4031 61.8004 18.3987C61.673 18.4042 61.5457 18.3838 61.4264 18.3388C61.307 18.2937 61.198 18.2249 61.106 18.1366C61.0177 18.0505 60.9483 17.947 60.9022 17.8326C60.856 17.7182 60.8341 17.5955 60.8379 17.4722V13.348C60.8379 12.1994 60.3093 11.6251 59.252 11.6251C58.0594 11.6251 57.4638 12.2407 57.4652 13.4719V17.4722C57.4687 17.5966 57.4455 17.7202 57.3971 17.8348C57.3488 17.9495 57.2764 18.0523 57.1849 18.1366C56.9957 18.3052 56.751 18.3984 56.4976 18.3984C56.2441 18.3984 55.9995 18.3052 55.8102 18.1366C55.7194 18.0519 55.6477 17.9489 55.5997 17.8344C55.5518 17.7198 55.5287 17.5964 55.5321 17.4722Z" fill="black" stroke="#231F20" stroke-width="0.5" stroke-miterlimit="10"/>
<path d="M69.3517 15.7676C69.3517 14.9347 69.6299 14.2852 70.1863 13.8193C70.7685 13.3444 71.5027 13.0962 72.2534 13.1204H74.5967V12.8319C74.6013 12.6619 74.5648 12.4933 74.4902 12.3404C74.4156 12.1876 74.3051 12.0551 74.1682 11.9542C73.8162 11.7152 73.3949 11.5995 72.9702 11.6251C72.6468 11.6202 72.3257 11.6803 72.026 11.8019C71.7272 11.9297 71.4433 12.0898 71.1792 12.2793C71.0224 12.3884 70.8362 12.4472 70.6452 12.4479C70.5322 12.4516 70.4196 12.4317 70.3147 12.3894C70.2098 12.347 70.1149 12.2833 70.036 12.2021C69.9554 12.126 69.8916 12.034 69.8486 11.9318C69.8056 11.8297 69.7843 11.7197 69.7863 11.6089C69.7874 11.3899 69.8725 11.1798 70.0239 11.0217C70.717 10.2578 71.6957 9.87585 72.96 9.87585C74.0782 9.87585 74.9507 10.1386 75.5774 10.6641C76.2042 11.1897 76.5176 11.9244 76.5176 12.8685V17.4499C76.5192 17.5741 76.4949 17.6974 76.4463 17.8117C76.3977 17.9261 76.3259 18.0291 76.2353 18.1142C76.1484 18.2039 76.0442 18.275 75.9291 18.3232C75.8139 18.3714 75.6901 18.3957 75.5653 18.3946C75.4392 18.3953 75.3143 18.3704 75.1981 18.3215C75.0819 18.2727 74.9768 18.2007 74.8891 18.1101C74.7974 18.0232 74.7246 17.9182 74.6754 17.8018C74.6261 17.6853 74.6014 17.56 74.6028 17.4336C74.1791 18.1365 73.402 18.488 72.2717 18.488C71.3972 18.488 70.6919 18.2361 70.1558 17.7323C69.8901 17.4807 69.6809 17.1753 69.5423 16.8366C69.4037 16.4979 69.3387 16.1335 69.3517 15.7676ZM71.2828 15.7676C71.2749 15.921 71.3047 16.0739 71.3694 16.2131C71.4342 16.3522 71.532 16.4734 71.6544 16.5661C71.9865 16.7763 72.3772 16.8745 72.7692 16.8464C73.2368 16.8581 73.6934 16.7042 74.0586 16.4117C74.2317 16.2744 74.3705 16.0986 74.4639 15.8983C74.5573 15.698 74.6028 15.4787 74.5967 15.2577V14.766H72.5072C72.1835 14.7484 71.8636 14.8431 71.6016 15.0342C71.4959 15.1239 71.4122 15.2367 71.3569 15.3638C71.3017 15.491 71.2763 15.6291 71.2828 15.7676Z" fill="black" stroke="#231F20" stroke-width="0.5" stroke-miterlimit="10"/>
<path d="M78.2072 17.4336V10.9445C78.2047 10.8174 78.2285 10.6912 78.277 10.5737C78.3256 10.4562 78.3979 10.3501 78.4895 10.2619C78.6249 10.1269 78.7973 10.0351 78.9848 9.99808C79.1724 9.96109 79.3667 9.98058 79.5432 10.0541C79.7197 10.1276 79.8704 10.2518 79.9763 10.411C80.0823 10.5702 80.1386 10.7573 80.1383 10.9486V11.0461C80.3173 10.6912 80.6008 10.3998 80.9505 10.2111C81.2927 10.0069 81.6831 9.89755 82.0815 9.89417C82.3239 9.89417 82.5563 9.99049 82.7277 10.1619C82.899 10.3334 82.9953 10.5659 82.9953 10.8084C82.9953 11.0509 82.899 11.2834 82.7277 11.4549C82.5563 11.6263 82.3239 11.7227 82.0815 11.7227C81.82 11.7086 81.5585 11.7494 81.3137 11.8425C81.0689 11.9356 80.8463 12.0788 80.6601 12.2631C80.3061 12.6608 80.1224 13.1817 80.1484 13.7137V17.4336C80.1505 17.5607 80.1265 17.6868 80.0779 17.8042C80.0294 17.9216 79.9573 18.0278 79.8662 18.1163C79.6836 18.2951 79.4384 18.3952 79.1829 18.3952C78.9274 18.3952 78.6822 18.2951 78.4996 18.1163C78.406 18.0292 78.3315 17.9235 78.2812 17.8059C78.2308 17.6883 78.2056 17.5615 78.2072 17.4336Z" fill="black" stroke="#231F20" stroke-width="0.5" stroke-miterlimit="10"/>
<path d="M84.0106 11.5214C83.9345 11.4448 83.8746 11.3537 83.8341 11.2536C83.7937 11.1535 83.7736 11.0463 83.775 10.9383C83.7732 10.8312 83.7932 10.7249 83.8337 10.6257C83.8742 10.5265 83.9343 10.4366 84.0106 10.3613C84.0834 10.284 84.1716 10.2227 84.2695 10.1815C84.3675 10.1402 84.4729 10.1198 84.5791 10.1216H84.9852V8.63445C84.984 8.51094 85.0087 8.38855 85.0576 8.27517C85.1066 8.1618 85.1788 8.05994 85.2695 7.97619C85.3566 7.88757 85.4606 7.81743 85.5754 7.76995C85.6902 7.72248 85.8134 7.69865 85.9376 7.69989C86.0612 7.69849 86.1838 7.72227 86.2979 7.76977C86.4121 7.81727 86.5154 7.8875 86.6015 7.97619C86.691 8.06069 86.7621 8.16277 86.8103 8.27605C86.8586 8.38932 86.8829 8.51133 86.8818 8.63445V10.1216H87.694C87.8002 10.1202 87.9055 10.1407 88.0033 10.182C88.1012 10.2232 88.1894 10.2843 88.2626 10.3613C88.3384 10.4369 88.3983 10.5269 88.4388 10.626C88.4792 10.7251 88.4994 10.8313 88.4981 10.9383C88.4995 11.0463 88.4794 11.1535 88.439 11.2536C88.3985 11.3537 88.3386 11.4448 88.2626 11.5214C88.1899 11.5994 88.1019 11.6614 88.004 11.7033C87.9061 11.7453 87.8005 11.7664 87.694 11.7652H86.8818V16.1028C86.878 16.1913 86.8944 16.2795 86.9295 16.3607C86.9647 16.442 87.0178 16.5143 87.0848 16.5721C87.2157 16.6871 87.3838 16.7506 87.5579 16.7509C87.6678 16.7486 87.7771 16.7687 87.879 16.8099C87.9809 16.8511 88.0734 16.9126 88.1509 16.9906C88.2285 17.0663 88.2903 17.1569 88.3324 17.2568C88.3746 17.3568 88.3963 17.4642 88.3963 17.5727C88.3963 17.6812 88.3746 17.7886 88.3324 17.8886C88.2903 17.9885 88.2285 18.079 88.1509 18.1548C88.0734 18.2328 87.9809 18.2943 87.879 18.3355C87.7771 18.3767 87.6678 18.3968 87.5579 18.3945C86.8706 18.4259 86.1987 18.1834 85.6898 17.72C85.4581 17.4936 85.2762 17.2212 85.1559 16.9203C85.0356 16.6194 84.9796 16.2966 84.9913 15.9728V11.7652H84.5852C84.4776 11.7676 84.3708 11.7471 84.2717 11.7051C84.1726 11.6631 84.0836 11.6005 84.0106 11.5214Z" fill="black" stroke="#231F20" stroke-width="0.5" stroke-miterlimit="10"/>
<path d="M44.8957 30.9217V20.7939C44.8948 20.6576 44.9212 20.5225 44.9731 20.3965C45.025 20.2706 45.1015 20.1562 45.1981 20.0601C45.2947 19.964 45.4095 19.8882 45.5357 19.8369C45.6619 19.7857 45.7971 19.7602 45.9333 19.7618H49.3426C50.0542 19.7462 50.7566 19.926 51.3732 20.2819C51.9262 20.6028 52.3769 21.0741 52.6727 21.6411C52.9649 22.2181 53.1133 22.8573 53.1052 23.5041C53.1078 24.0621 52.998 24.6149 52.7824 25.1294C52.5738 25.6329 52.2446 26.0773 51.8239 26.4236C51.4091 26.7734 50.9007 26.9938 50.3619 27.0575L53.0017 30.2858C53.1358 30.4681 53.2071 30.6892 53.2047 30.9156C53.2045 31.0517 53.1773 31.1865 53.1249 31.3121C53.0724 31.4377 52.9957 31.5518 52.8991 31.6476C52.8025 31.7435 52.688 31.8194 52.562 31.8709C52.436 31.9224 52.3011 31.9484 52.1651 31.9476C52.009 31.9572 51.8529 31.9277 51.7111 31.8617C51.5693 31.7957 51.4461 31.6954 51.3528 31.5698L48.1039 27.1895H46.9668V30.9217C46.969 31.0578 46.9438 31.193 46.8928 31.3192C46.8417 31.4454 46.7658 31.5601 46.6696 31.6563C46.5734 31.7526 46.4588 31.8286 46.3326 31.8797C46.2065 31.9307 46.0714 31.9559 45.9353 31.9537C45.798 31.9559 45.6618 31.9302 45.5347 31.8782C45.4077 31.8261 45.2925 31.7489 45.1962 31.651C45.099 31.5564 45.0221 31.4429 44.9705 31.3175C44.9188 31.192 44.8933 31.0573 44.8957 30.9217ZM46.9668 25.3671H49.3873C49.6149 25.3814 49.8425 25.3394 50.05 25.2448C50.2575 25.1502 50.4386 25.0059 50.5772 24.8247C50.841 24.4314 50.981 23.9681 50.9792 23.4944C50.9774 23.0208 50.8338 22.5585 50.567 22.1673C50.4209 21.9837 50.2323 21.8385 50.0176 21.744C49.8029 21.6495 49.5685 21.6086 49.3345 21.6248H46.9668V25.3671Z" fill="black" stroke="#231F20" stroke-width="0.5" stroke-miterlimit="10"/>
<path d="M54.3706 27.6832C54.3706 26.3288 54.709 25.2818 55.3859 24.5423C56.0627 23.8028 57.0103 23.4337 58.2287 23.435C58.7531 23.4255 59.2747 23.5123 59.7678 23.691C60.1559 23.8259 60.512 24.0397 60.8136 24.3188C61.0663 24.572 61.2725 24.8677 61.4227 25.1924C61.5676 25.4871 61.674 25.7991 61.7395 26.1209C61.7917 26.3975 61.8183 26.6784 61.8187 26.9599C61.8187 27.1448 61.8187 27.287 61.8187 27.3866C61.8073 27.5149 61.7849 27.642 61.7517 27.7665C61.7258 27.8954 61.6702 28.0165 61.5893 28.12C61.4979 28.2146 61.3871 28.2881 61.2644 28.3354C61.0936 28.4015 60.9114 28.4332 60.7283 28.4288H56.3017C56.3017 29.0451 56.4946 29.5103 56.8804 29.8246C57.3134 30.1569 57.85 30.3253 58.3952 30.3C59.0325 30.2981 59.6539 30.101 60.176 29.7352C60.3479 29.6151 60.5495 29.5448 60.7588 29.532C60.8699 29.5315 60.9801 29.553 61.083 29.5952C61.1858 29.6375 61.2793 29.6997 61.358 29.7782C61.4367 29.8568 61.4991 29.9502 61.5416 30.053C61.584 30.1558 61.6058 30.2659 61.6055 30.3772C61.6073 30.5046 61.5806 30.6308 61.5271 30.7465C61.4737 30.8622 61.395 30.9644 61.2969 31.0456C61.1382 31.1996 60.9632 31.3358 60.775 31.4519C60.4681 31.6231 60.1415 31.7562 59.8024 31.8481C59.3462 31.9864 58.8718 32.0549 58.3952 32.0513C57.1159 32.0513 56.125 31.6903 55.4224 30.9684C54.7199 30.2465 54.3693 29.1514 54.3706 27.6832ZM56.3545 26.7852H59.9019C59.9163 26.34 59.7642 25.9053 59.4754 25.5662C59.3196 25.3956 59.1273 25.2622 58.9129 25.176C58.6984 25.0899 58.4674 25.0531 58.2368 25.0685C57.7589 25.0486 57.2905 25.2055 56.921 25.5093C56.7454 25.6728 56.6047 25.87 56.5073 26.0893C56.4099 26.3086 56.358 26.5453 56.3545 26.7852Z" fill="black" stroke="#231F20" stroke-width="0.5" stroke-miterlimit="10"/>
<path d="M62.708 30.2045C62.7127 29.9756 62.8058 29.7573 62.9679 29.5956C63.1299 29.4338 63.3482 29.3412 63.5771 29.337C63.7785 29.3421 63.9727 29.4135 64.1294 29.5402C64.6852 30.0005 65.3836 30.2532 66.1051 30.2553C66.9932 30.2553 67.4372 30.0156 67.4372 29.5361C67.4367 29.367 67.3696 29.205 67.2504 29.0851C67.1095 28.9441 66.9388 28.8365 66.7509 28.7702C66.5478 28.691 66.3102 28.6056 66.0483 28.5162C65.7863 28.4268 65.5183 28.3415 65.2361 28.2623C64.954 28.1811 64.6816 28.0694 64.4238 27.9291C64.1734 27.7942 63.9373 27.6343 63.7192 27.4516C63.5023 27.2621 63.332 27.025 63.2217 26.7589C63.0917 26.4519 63.0274 26.1211 63.0329 25.7877C63.0161 25.4484 63.0847 25.1103 63.2322 24.8044C63.3798 24.4985 63.6017 24.2344 63.8776 24.0364C64.5087 23.6087 65.2603 23.395 66.0219 23.4269C66.6108 23.421 67.1956 23.5257 67.7458 23.7358C68.1991 23.89 68.6052 24.1579 68.9256 24.5139C69.04 24.6638 69.1014 24.8474 69.1002 25.036C69.1017 25.1496 69.0799 25.2622 69.0363 25.367C68.9926 25.4718 68.928 25.5666 68.8464 25.6455C68.7681 25.7278 68.6734 25.7927 68.5685 25.8361C68.4636 25.8795 68.3507 25.9004 68.2372 25.8974C68.0144 25.8789 67.8022 25.794 67.6281 25.6536C67.1684 25.2908 66.6032 25.0876 66.0178 25.0746C65.7461 25.0594 65.4755 25.1199 65.2361 25.2493C65.1492 25.3018 65.078 25.3766 65.0298 25.4659C64.9816 25.5552 64.9582 25.6558 64.9619 25.7573C64.964 25.8483 64.987 25.9377 65.0293 26.0184C65.0716 26.0991 65.1319 26.169 65.2056 26.2225C65.3945 26.3703 65.6075 26.4843 65.8351 26.5598C66.0909 26.6512 66.3772 26.7406 66.692 26.832C67.0123 26.9242 67.3263 27.0368 67.6321 27.1692C67.9315 27.2954 68.2162 27.4542 68.4809 27.6426C68.7445 27.8332 68.9589 28.084 69.1063 28.374C69.3472 28.8719 69.4116 29.4369 69.2891 29.9763C69.1666 30.5157 68.8644 30.9974 68.4322 31.3423C67.8189 31.7865 67.0318 32.0093 66.0706 32.0107C65.4124 32.0202 64.7598 31.8872 64.1578 31.6206C63.6806 31.429 63.253 31.1317 62.907 30.751C62.7804 30.5969 62.7102 30.4041 62.708 30.2045Z" fill="black" stroke="#231F20" stroke-width="0.5" stroke-miterlimit="10"/>
<path d="M70.6638 21.44C70.6638 20.6531 71.0456 20.2596 71.809 20.2596C72.5725 20.2596 72.9597 20.6531 72.9705 21.44C72.9799 21.5917 72.9581 21.7438 72.9064 21.8867C72.8547 22.0296 72.7742 22.1604 72.67 22.271C72.5536 22.3757 72.4175 22.456 72.2697 22.5073C72.1218 22.5586 71.9652 22.5798 71.809 22.5696C71.6544 22.5795 71.4995 22.5577 71.3535 22.5056C71.2076 22.4536 71.0738 22.3724 70.9603 22.2669C70.8582 22.1559 70.7793 22.0255 70.7284 21.8835C70.6775 21.7415 70.6555 21.5907 70.6638 21.44ZM70.8466 30.9888V24.5017C70.8458 24.375 70.8701 24.2495 70.9182 24.1323C70.9663 24.015 71.0371 23.9086 71.1267 23.819C71.2162 23.7294 71.3226 23.6585 71.4398 23.6104C71.5569 23.5623 71.6824 23.5379 71.809 23.5387C71.9364 23.5367 72.0629 23.5605 72.1809 23.6087C72.2988 23.6569 72.4058 23.7285 72.4954 23.8191C72.5872 23.9072 72.6598 24.0133 72.7087 24.1307C72.7576 24.2482 72.7818 24.3745 72.7797 24.5017V30.9908C72.7818 31.1181 72.7576 31.2444 72.7087 31.3618C72.6598 31.4793 72.5872 31.5854 72.4954 31.6735C72.4058 31.7641 72.2988 31.8357 72.1809 31.8839C72.0629 31.932 71.9364 31.9558 71.809 31.9538C71.6824 31.9546 71.5569 31.9303 71.4398 31.8822C71.3226 31.8341 71.2162 31.7632 71.1267 31.6736C71.0371 31.584 70.9663 31.4775 70.9182 31.3603C70.8701 31.2431 70.8458 31.1175 70.8466 30.9908V30.9888Z" fill="black" stroke="#231F20" stroke-width="0.5" stroke-miterlimit="10"/>
<path d="M74.1949 27.7503C74.1949 26.32 74.513 25.2432 75.1492 24.5199C75.7855 23.7967 76.6809 23.435 77.8356 23.435C78.2241 23.4306 78.6099 23.4995 78.9728 23.6382C79.2787 23.7468 79.5593 23.9169 79.7972 24.138V20.0239C79.7947 19.8968 79.8184 19.7705 79.867 19.6531C79.9156 19.5356 79.9879 19.4294 80.0794 19.3412C80.2622 19.1629 80.5074 19.0631 80.7627 19.0631C81.018 19.0631 81.2632 19.1629 81.446 19.3412C81.5375 19.4294 81.6098 19.5356 81.6584 19.6531C81.707 19.7705 81.7307 19.8968 81.7282 20.0239V28.4634C81.7282 29.6173 81.3898 30.5038 80.7129 31.1228C80.0361 31.7418 79.1413 32.0506 78.0285 32.0492C76.798 32.0492 75.8504 31.691 75.1858 30.9745C74.5211 30.258 74.1908 29.1832 74.1949 27.7503ZM76.1259 27.7503C76.1259 28.6266 76.2884 29.2882 76.6132 29.7352C76.7758 29.9563 76.9909 30.1334 77.2391 30.2505C77.4873 30.3675 77.7607 30.4209 78.0346 30.4056C78.2721 30.4158 78.509 30.3752 78.7296 30.2866C78.9502 30.1979 79.1494 30.0633 79.3139 29.8916C79.6542 29.4988 79.8276 28.9884 79.7972 28.4695V25.9908L79.718 25.8933C79.6451 25.8158 79.5678 25.7425 79.4865 25.6739C79.3702 25.5717 79.2467 25.478 79.1169 25.3935C78.9638 25.3004 78.7993 25.2274 78.6276 25.1762C78.4364 25.1121 78.2362 25.0791 78.0346 25.0786C77.7603 25.0635 77.4865 25.1173 77.2382 25.2351C76.99 25.3529 76.7751 25.531 76.6132 25.7531C76.2884 26.2015 76.1259 26.8672 76.1259 27.7503Z" fill="black" stroke="#231F20" stroke-width="0.5" stroke-miterlimit="10"/>
<path d="M83.0664 27.6832C83.0664 26.3288 83.4048 25.2818 84.0817 24.5423C84.7585 23.8028 85.7061 23.4337 86.9245 23.435C87.4489 23.4255 87.9705 23.5123 88.4637 23.691C88.8518 23.8259 89.2078 24.0397 89.5094 24.3188C89.7621 24.572 89.9683 24.8677 90.1186 25.1924C90.2634 25.4871 90.3699 25.7991 90.4353 26.1209C90.4876 26.3975 90.5141 26.6784 90.5145 26.9599C90.5145 27.1448 90.5145 27.287 90.5145 27.3866C90.5031 27.5149 90.4807 27.642 90.4475 27.7665C90.4217 27.8954 90.366 28.0165 90.2851 28.12C90.1938 28.2146 90.0829 28.2881 89.9602 28.3354C89.7894 28.4015 89.6072 28.4332 89.4241 28.4288H84.9975C84.9975 29.0451 85.1904 29.5103 85.5762 29.8246C86.0099 30.1572 86.5472 30.3256 87.093 30.3C87.7297 30.298 88.3505 30.1009 88.8718 29.7352C89.0437 29.6151 89.2453 29.5448 89.4546 29.532C89.5657 29.5315 89.6759 29.553 89.7788 29.5952C89.8816 29.6375 89.9751 29.6997 90.0538 29.7782C90.1325 29.8568 90.1949 29.9502 90.2374 30.053C90.2799 30.1558 90.3016 30.266 90.3013 30.3772C90.303 30.5044 90.2763 30.6303 90.2233 30.746C90.1702 30.8616 90.0922 30.9639 89.9947 31.0456C89.8349 31.1991 89.6592 31.3353 89.4708 31.4519C89.1639 31.6231 88.8373 31.7562 88.4982 31.8481C88.0427 31.9863 87.569 32.0548 87.093 32.0513C85.8124 32.0513 84.8208 31.6903 84.1182 30.9684C83.4157 30.2465 83.0651 29.1514 83.0664 27.6832ZM85.0503 26.7852H88.5997C88.6141 26.34 88.4621 25.9053 88.1733 25.5662C88.0174 25.3956 87.8251 25.2622 87.6107 25.176C87.3963 25.0899 87.1652 25.0531 86.9346 25.0685C86.4573 25.0481 85.9894 25.2052 85.6209 25.5093C85.4442 25.6722 85.3026 25.8693 85.2045 26.0886C85.1064 26.3079 85.0539 26.545 85.0503 26.7852Z" fill="black" stroke="#231F20" stroke-width="0.5" stroke-miterlimit="10"/>
<path d="M91.8508 31.0254V24.5017C91.8483 24.3746 91.872 24.2484 91.9206 24.1309C91.9692 24.0134 92.0415 23.9073 92.133 23.8191C92.3151 23.6393 92.5605 23.5385 92.8163 23.5385C93.0721 23.5385 93.3176 23.6393 93.4996 23.8191C93.5911 23.9073 93.6634 24.0134 93.712 24.1309C93.7606 24.2484 93.7844 24.3746 93.7818 24.5017C94.0089 24.181 94.3116 23.9214 94.6631 23.7459C95.1039 23.5262 95.5923 23.4194 96.0845 23.4351C98.0907 23.4351 99.0938 24.4726 99.0938 26.5476V31.0172C99.0966 31.1413 99.0727 31.2644 99.0236 31.3784C98.9745 31.4923 98.9015 31.5943 98.8095 31.6775C98.7183 31.7651 98.6108 31.8339 98.493 31.8799C98.3752 31.9259 98.2496 31.9483 98.1232 31.9457C97.9956 31.9509 97.8683 31.9302 97.7489 31.8848C97.6295 31.8394 97.5206 31.7703 97.4287 31.6816C97.3411 31.5951 97.2723 31.4914 97.2266 31.3771C97.1808 31.2628 97.1591 31.1403 97.1627 31.0172V26.9072C97.1627 25.7573 96.6341 25.183 95.5769 25.1844C94.3842 25.1844 93.7879 25.7993 93.7879 27.0291V31.0254C93.7918 31.1496 93.769 31.2732 93.721 31.3878C93.673 31.5024 93.601 31.6054 93.5097 31.6897C93.3211 31.8596 93.0762 31.9536 92.8224 31.9536C92.5686 31.9536 92.3237 31.8596 92.1351 31.6897C92.0431 31.6056 91.9702 31.5028 91.9212 31.3882C91.8722 31.2737 91.8482 31.15 91.8508 31.0254Z" fill="black" stroke="#231F20" stroke-width="0.5" stroke-miterlimit="10"/>
<path d="M101.417 30.9684C100.74 30.2492 100.401 29.1711 100.401 27.734C100.401 26.297 100.74 25.2209 101.417 24.5057C102.094 23.7919 103.055 23.435 104.302 23.435C104.781 23.4316 105.257 23.5113 105.709 23.6707C106.058 23.7835 106.387 23.9471 106.688 24.1563C106.885 24.3054 107.065 24.4772 107.222 24.6683C107.34 24.8279 107.407 25.0201 107.413 25.2188C107.415 25.3319 107.393 25.4441 107.351 25.5488C107.308 25.6535 107.245 25.7485 107.165 25.8283C107.087 25.911 106.992 25.9763 106.888 26.02C106.783 26.0637 106.67 26.085 106.556 26.0823C106.43 26.0825 106.305 26.0552 106.19 26.0022C106.076 25.9492 105.974 25.8718 105.892 25.7755C105.693 25.5514 105.448 25.373 105.173 25.2524C104.899 25.1318 104.602 25.0718 104.302 25.0766C104.024 25.0626 103.747 25.1187 103.497 25.2397C103.246 25.3608 103.03 25.5429 102.868 25.7694C102.535 26.2313 102.37 26.8855 102.371 27.732C102.372 28.5785 102.538 29.2395 102.868 29.7149C103.031 29.9405 103.247 30.1217 103.498 30.2421C103.748 30.3624 104.025 30.4179 104.302 30.4036C104.557 30.4028 104.81 30.3574 105.049 30.2695C105.242 30.2077 105.426 30.1238 105.6 30.0196C105.719 29.9384 105.878 29.8165 106.077 29.6783C106.231 29.565 106.417 29.5031 106.609 29.5016C106.721 29.501 106.833 29.5228 106.937 29.5657C107.042 29.6086 107.136 29.6717 107.216 29.7515C107.296 29.8312 107.359 29.9259 107.402 30.0302C107.444 30.1344 107.466 30.2462 107.466 30.3589C107.466 30.4853 107.439 30.6102 107.386 30.7249C107.333 30.8397 107.255 30.9415 107.159 31.0233C106.816 31.3204 106.426 31.5586 106.006 31.7282C105.466 31.9509 104.886 32.0595 104.302 32.0472C103.059 32.0486 102.098 31.689 101.417 30.9684Z" fill="black" stroke="#231F20" stroke-width="0.5" stroke-miterlimit="10"/>
<path d="M108.485 27.6832C108.485 26.3288 108.823 25.2818 109.5 24.5423C110.177 23.8028 111.125 23.4337 112.343 23.435C112.867 23.4255 113.389 23.5123 113.882 23.691C114.271 23.8257 114.628 24.0394 114.93 24.3188C115.183 24.572 115.389 24.8677 115.539 25.1924C115.684 25.4871 115.79 25.7991 115.856 26.1209C115.908 26.3975 115.935 26.6784 115.935 26.9599C115.935 27.1448 115.935 27.287 115.935 27.3866C115.924 27.5149 115.901 27.642 115.868 27.7665C115.842 27.8954 115.787 28.0165 115.706 28.12C115.614 28.2146 115.503 28.2881 115.381 28.3354C115.21 28.4015 115.028 28.4332 114.845 28.4288H110.416C110.416 29.0451 110.609 29.5103 110.995 29.8246C111.428 30.1569 111.964 30.3253 112.509 30.3C113.147 30.2981 113.768 30.101 114.29 29.7352C114.462 29.6151 114.664 29.5448 114.873 29.532C114.984 29.5315 115.094 29.553 115.197 29.5952C115.3 29.6375 115.394 29.6997 115.472 29.7782C115.551 29.8568 115.613 29.9502 115.656 30.053C115.698 30.1558 115.72 30.2659 115.72 30.3772C115.721 30.5045 115.694 30.6306 115.641 30.7462C115.587 30.8619 115.509 30.9641 115.411 31.0456C115.252 31.1996 115.077 31.3358 114.889 31.4519C114.582 31.6231 114.256 31.7562 113.917 31.8481C113.46 31.9864 112.986 32.0549 112.509 32.0513C111.23 32.0513 110.239 31.6903 109.537 30.9684C108.834 30.2465 108.484 29.1514 108.485 27.6832ZM110.469 26.7852H114.018C114.033 26.34 113.881 25.9053 113.592 25.5662C113.436 25.3956 113.244 25.2622 113.029 25.176C112.815 25.0899 112.584 25.0531 112.353 25.0685C111.875 25.0486 111.407 25.2055 111.037 25.5093C110.86 25.6721 110.718 25.869 110.619 26.0883C110.52 26.3076 110.467 26.5447 110.463 26.7852H110.469Z" fill="black" stroke="#231F20" stroke-width="0.5" stroke-miterlimit="10"/>
</g>
<defs>
<linearGradient id="paint0_linear_50_20" x1="4.90917e-05" y1="19" x2="40.8611" y2="19" gradientUnits="userSpaceOnUse">
<stop offset="0.32" stop-color="#5F0766"/>
<stop offset="1" stop-color="#FFC200"/>
</linearGradient>
<clipPath id="clip0_50_20">
<rect width="116" height="38" fill="white"/>
</clipPath>
</defs>
</svg>
