<svg width="44" height="44" viewBox="0 0 44 44" fill="none" xmlns="http://www.w3.org/2000/svg">
<path d="M44 22C44 9.84974 34.1503 0 22 0C9.84974 0 0 9.84974 0 22C0 34.1503 9.84974 44 22 44C34.1503 44 44 34.1503 44 22Z" fill="url(#paint0_linear_335_336)"/>
<path d="M31.0988 14.8054C30.9106 14.3983 30.6132 14.0514 30.2396 13.8032C29.8659 13.5551 29.4308 13.4154 28.9826 13.3999C23.3603 13.1939 19.7798 13.4304 18.337 14.1032C16.8888 14.7803 15.7684 16.0043 15.2216 17.5065C14.6749 19.0088 14.7465 20.6666 15.4208 22.1161C15.5926 22.4848 15.8017 22.8349 16.0447 23.1611C15.1818 24.1621 14.2291 25.3316 13.1866 26.6695C12.9111 27.0232 12.7388 27.4462 12.6885 27.8916C12.6382 28.3371 12.7119 28.7878 12.9016 29.194C13.0912 29.6002 13.3894 29.9462 13.7632 30.1937C14.137 30.4411 14.5719 30.5806 15.0199 30.5965C20.6421 30.8025 24.2226 30.566 25.6654 29.8931C26.4751 29.5145 27.1905 28.9606 27.7598 28.2716C28.3291 27.5826 28.7382 26.7756 28.9574 25.9091C29.1766 25.0426 29.2004 24.1382 29.0272 23.2613C28.854 22.3844 28.4881 21.557 27.9559 20.8389C28.8188 19.8379 29.7713 18.6684 30.8134 17.3305C31.0901 16.9773 31.2633 16.5542 31.3137 16.1084C31.3641 15.6625 31.2897 15.2115 31.0988 14.8054ZM29.8112 16.5483C28.8334 17.8047 27.9168 18.9267 27.0851 19.8954C26.4388 19.3321 25.6802 18.9126 24.8597 18.6644C24.0391 18.4162 23.1752 18.345 22.3251 18.4556C22.071 18.1267 21.7119 17.8946 21.3076 17.798C20.9034 17.7014 20.4782 17.746 20.1028 17.9245C19.7274 18.103 19.4244 18.4046 19.2441 18.7791C19.0639 19.1537 19.0172 19.5786 19.1119 19.9834C19.2134 20.4125 19.4664 20.7905 19.8244 21.0479C20.0881 21.2365 20.3974 21.3514 20.7203 21.3805C21.0432 21.4097 21.368 21.3521 21.6612 21.2138C21.9544 21.0754 22.2053 20.8613 22.3881 20.5936C22.5709 20.3258 22.6789 20.0141 22.7009 19.6906C23.3391 19.6364 23.9816 19.7109 24.5905 19.9096C25.1993 20.1083 25.7621 20.4272 26.2454 20.8475C26.8419 21.3684 27.2989 22.0301 27.5749 22.7724C27.851 23.5147 27.9373 24.3141 27.8262 25.0983C27.7151 25.8824 27.41 26.6264 26.9385 27.2627C26.4671 27.8991 25.8442 28.4077 25.1264 28.7424C23.9201 29.3046 20.2528 29.5179 15.0639 29.3272C14.8496 29.3201 14.6414 29.2537 14.4625 29.1355C14.2836 29.0173 14.1409 28.8518 14.0503 28.6575C13.9597 28.4631 13.9247 28.2475 13.9491 28.0344C13.9735 27.8214 14.0565 27.6193 14.1888 27.4505C15.1666 26.1941 16.0832 25.0721 16.9149 24.1035C17.5612 24.667 18.3197 25.0869 19.1404 25.3354C19.9611 25.5838 20.8252 25.655 21.6755 25.5445C21.9296 25.8734 22.2887 26.1054 22.693 26.202C23.0973 26.2986 23.5224 26.254 23.8978 26.0755C24.2732 25.897 24.5762 25.5955 24.7565 25.2209C24.9367 24.8464 24.9834 24.4214 24.8887 24.0167C24.7872 23.5876 24.5342 23.2096 24.1762 22.9521C23.9125 22.7635 23.6032 22.6487 23.2804 22.6195C22.9575 22.5904 22.6326 22.6479 22.3394 22.7863C22.0462 22.9246 21.7953 23.1387 21.6125 23.4065C21.4297 23.6743 21.3217 23.986 21.2997 24.3094C20.6615 24.3639 20.0189 24.2895 19.41 24.0908C18.8011 23.8921 18.2384 23.573 17.7552 23.1526C17.4303 22.8699 17.1459 22.5437 16.9101 22.1834C16.7831 21.99 16.6702 21.7878 16.5721 21.5784C16.0411 20.4343 15.9852 19.1265 16.4166 17.9413C16.848 16.7562 17.7315 15.7903 18.8736 15.2552C20.0799 14.693 23.7472 14.4797 28.9361 14.6704C29.1504 14.6775 29.3586 14.7439 29.5375 14.8621C29.7164 14.9803 29.8591 15.1458 29.9497 15.3401C30.0403 15.5345 30.0753 15.7501 30.0509 15.9632C30.0265 16.1762 29.9435 16.3783 29.8112 16.5471V16.5483Z" fill="white"/>
<defs>
<linearGradient id="paint0_linear_335_336" x1="0" y1="22" x2="44" y2="22" gradientUnits="userSpaceOnUse">
<stop offset="0.32" stop-color="#5F0766"/>
<stop offset="1" stop-color="#FFC200"/>
</linearGradient>
</defs>
</svg>
