<svg width="23" height="26" viewBox="0 0 23 26" fill="none" xmlns="http://www.w3.org/2000/svg">
<path d="M12.5437 12.4348L16.6861 8.16027L3.30613 0.400472C2.41936 -0.0939115 1.58862 -0.163298 0.860153 0.377343L12.5437 12.4348ZM17.3922 17.4394L21.6986 14.94C22.5391 14.4543 23 13.7662 23 13.0029C23 12.2411 22.5391 11.5516 21.7 11.0659L17.8013 8.80644L13.4122 13.334L17.3922 17.4394ZM0.14009 1.42827C0.0504323 1.71305 0 2.03107 0 2.37945V23.6365C0 24.1873 0.117676 24.6614 0.330613 25.0387L11.6737 13.3325L0.14009 1.42827ZM12.5437 14.2288L1.26361 25.8699C1.47935 25.9552 1.7119 26 1.95706 26C2.39414 26 2.84943 25.867 3.31313 25.601L16.2785 18.0884L12.5437 14.2288Z" fill="white"/>
</svg>
