<svg width="163" height="131" viewBox="0 0 163 131" fill="none" xmlns="http://www.w3.org/2000/svg">
<g clip-path="url(#clip0_416_600)">
<path d="M82.4676 131C126.944 131 163 128.19 163 124.724C163 121.258 126.944 118.448 82.4676 118.448C37.991 118.448 1.93555 121.258 1.93555 124.724C1.93555 128.19 37.991 131 82.4676 131Z" fill="#3F3D56"/>
<path d="M150.875 113.065L151.63 118.586L146.347 119.088L147.101 112.312L150.875 113.065Z" fill="#A0616A"/>
<path d="M125.968 37.27C125.968 37.27 126.471 44.0464 126.471 44.2974C126.471 44.5483 122.948 61.8657 122.948 61.8657C122.948 61.8657 117.916 71.4028 122.948 71.1518C127.98 70.9009 126.471 62.1167 126.471 62.1167L131.754 47.5601L129.49 37.27L125.968 37.27Z" fill="#A0616A"/>
<path d="M134.27 113.065L133.516 118.586L138.799 119.088L138.044 112.312L134.27 113.065Z" fill="#A0616A"/>
<path d="M128.483 61.3638L127.225 63.1206C127.225 63.1206 126.47 70.6499 127.225 73.1597C127.98 75.6694 129.49 87.2143 129.49 87.9673C129.49 88.7202 129.741 89.2221 129.49 89.4731C129.238 89.7241 128.483 89.7241 128.986 90.2261C129.489 90.728 129.49 92.2339 129.49 92.2339V93.4887L132.76 112.061C132.76 112.061 130.747 114.32 132.257 114.32C133.767 114.32 139.302 114.32 139.05 111.81L138.547 111.559C138.547 111.559 137.792 94.9946 138.044 94.2417C138.295 93.4888 138.044 91.9829 138.044 91.9829C138.044 91.9829 137.541 91.23 138.044 90.979C138.547 90.728 138.547 88.7202 138.547 88.7202L140.811 73.4106C140.811 73.4106 142.824 83.7007 144.082 84.7046C145.34 85.7085 145.089 88.2183 145.089 88.2183L146.095 110.304C146.095 110.304 145.089 112.814 146.095 113.316C147.101 113.818 151.379 115.575 151.63 113.065C151.882 110.555 153.14 88.7202 153.14 87.7163C153.14 86.7124 152.888 86.2104 153.14 85.4575C153.391 84.7046 152.888 84.7046 153.14 84.7046C153.391 84.7046 152.637 83.9516 152.637 83.4497V71.1518C152.637 71.1518 152.888 68.6421 153.14 68.1401C153.391 67.6382 152.888 67.1362 153.14 66.3833C153.391 65.6304 152.637 63.1206 152.637 63.1206L141.315 60.1089L128.483 61.3638Z" fill="#2F2E41"/>
<path d="M137.289 117.582C137.289 117.582 138.547 116.328 136.786 116.328C135.655 116.351 134.542 116.607 133.515 117.081L132.257 121.598C132.257 121.598 127.1 125.739 132.886 125.237C138.673 124.735 137.793 125.112 137.793 125.112C137.793 125.112 139.554 124.61 139.805 124.108C140.057 123.606 139.302 116.328 139.302 116.328C139.302 116.328 138.547 118.335 137.289 117.582Z" fill="#2F2E41"/>
<path d="M148.108 117.582C148.108 117.582 146.85 116.328 148.611 116.328C149.742 116.351 150.855 116.607 151.882 117.081L153.14 121.598C153.14 121.598 158.297 125.739 152.511 125.237C146.724 124.735 146.85 125.112 146.85 125.112C146.85 125.112 145.088 124.61 144.837 124.108C144.585 123.606 146.095 116.328 146.095 116.328C146.095 116.328 146.85 118.335 148.108 117.582Z" fill="#2F2E41"/>
<path d="M131.753 17.4429C135.366 17.4429 138.295 14.5213 138.295 10.9175C138.295 7.3136 135.366 4.39209 131.753 4.39209C128.141 4.39209 125.212 7.3136 125.212 10.9175C125.212 14.5213 128.141 17.4429 131.753 17.4429Z" fill="#A0616A"/>
<path d="M129.489 15.686C129.489 15.686 130.496 20.7056 130.496 21.4585C130.496 22.2114 134.773 24.4702 134.773 24.4702L139.553 18.4468C139.553 18.4468 136.534 14.1802 136.534 13.1763L129.489 15.686Z" fill="#A0616A"/>
<path d="M133.264 22.2114C133.264 22.2114 131.071 21.6292 130.406 20.6654C130.406 20.6654 123.451 27.4819 123.451 28.7368L128.986 38.5249C128.986 38.5249 128.986 42.0385 129.49 42.2895C129.993 42.5405 129.49 42.2895 129.49 43.2934C129.49 44.2973 127.98 50.8227 128.483 51.8266C128.986 52.8305 129.49 52.0776 128.986 53.5834C128.483 55.0893 127.225 63.1205 127.225 63.1205C127.225 63.1205 131.754 61.6147 138.295 64.1244C144.837 66.6342 152.637 63.1205 152.637 63.1205C152.637 63.1205 150.624 58.603 151.127 57.0971C151.63 55.5913 149.869 52.8305 149.869 52.8305L148.611 29.7407C148.611 29.7407 150.372 19.4507 149.114 18.9487L146.598 17.9448L138.541 16.957C138.541 16.957 136.534 21.9604 133.264 22.2114Z" fill="#D0CDE1"/>
<path d="M125.967 26.98L123.451 28.7368C123.451 28.7368 122.193 32.5015 123.451 34.2583C124.709 36.0151 125.212 38.5249 125.212 38.5249L130.244 38.0229L125.967 26.98Z" fill="#D0CDE1"/>
<path d="M126.76 4.02126L125.625 3.5681C125.625 3.5681 127.998 0.962494 131.299 1.18907L130.37 0.169473C130.37 0.169473 132.64 -0.736818 134.703 1.64221C135.787 2.89282 137.042 4.36283 137.824 6.01879H139.04L138.532 7.13279L140.308 8.24678L138.486 8.04668C138.658 9.00841 138.599 9.9973 138.313 10.9318L138.362 11.8123C138.362 11.8123 136.25 8.55275 136.25 8.09959V9.23247C136.25 9.23247 135.115 8.21288 135.115 7.53316L134.496 8.32618L134.187 7.08001L130.37 8.32618L130.989 7.30659L128.617 7.64646L129.545 6.4003C129.545 6.4003 126.863 7.87304 126.76 9.1192C126.657 10.3654 125.316 11.9514 125.316 11.9514L124.697 10.8185C124.697 10.8185 123.768 5.72056 126.76 4.02126Z" fill="#2F2E41"/>
<path d="M128.277 54.6172H28.2969V124.676H128.277V54.6172Z" fill="#F2F2F2"/>
<path d="M61.8168 81.348H36.7129V125.063H61.8168V81.348Z" fill="#3F3D56"/>
<path d="M48.1188 83.9705H41.3564V90.2587H48.1188V83.9705Z" fill="#F2F2F2"/>
<path d="M57.1734 83.9705H50.4111V90.2587H57.1734V83.9705Z" fill="#F2F2F2"/>
<path d="M48.1188 92.5454H41.3564V99.0623H48.1188V92.5454Z" fill="#F2F2F2"/>
<path d="M57.1734 92.5454H50.4111V99.0623H57.1734V92.5454Z" fill="#F2F2F2"/>
<path d="M58.6245 107.741C59.5061 107.741 60.2207 107.028 60.2207 106.148C60.2207 105.269 59.5061 104.556 58.6245 104.556C57.743 104.556 57.0283 105.269 57.0283 106.148C57.0283 107.028 57.743 107.741 58.6245 107.741Z" fill="#6C63FF"/>
<path d="M119.861 77.1982H70.2334V118.742H119.861V77.1982Z" fill="#3F3D56"/>
<path d="M138.725 67.8069H17.8486L25.908 50.9983L27.7117 47.2348L30.0713 42.3133L31.875 38.5498L33.9659 34.19H129.201L130.436 38.5498L131.503 42.3133L132.897 47.2348L133.964 50.9983L138.725 67.8069Z" fill="#3F3D56"/>
<path d="M73.7159 94.4236H71.9746V105.135H73.7159V94.4236Z" fill="#6C63FF"/>
<path d="M73.7159 96.0159H71.9746V97.3186H73.7159V96.0159Z" fill="#F2F2F2"/>
<path d="M73.7159 102.24H71.9746V103.543H73.7159V102.24Z" fill="#F2F2F2"/>
<path d="M78.7941 94.4236H74.5859V105.135H78.7941V94.4236Z" fill="#6C63FF"/>
<path d="M78.7941 96.0159H74.5859V97.3186H78.7941V96.0159Z" fill="#F2F2F2"/>
<path d="M78.7941 102.24H74.5859V103.543H78.7941V102.24Z" fill="#F2F2F2"/>
<path d="M81.5518 94.4236H79.8105V105.135H81.5518V94.4236Z" fill="#6C63FF"/>
<path d="M81.5518 96.0159H79.8105V97.3186H81.5518V96.0159Z" fill="#F2F2F2"/>
<path d="M81.5518 102.24H79.8105V103.543H81.5518V102.24Z" fill="#F2F2F2"/>
<path d="M84.1632 94.4236H82.4219V105.135H84.1632V94.4236Z" fill="#6C63FF"/>
<path d="M84.1632 96.0159H82.4219V97.3186H84.1632V96.0159Z" fill="#F2F2F2"/>
<path d="M84.1632 102.24H82.4219V103.543H84.1632V102.24Z" fill="#F2F2F2"/>
<path d="M85.8413 94.4615L84.2119 95.0742L87.9995 105.097L89.6289 104.485L85.8413 94.4615Z" fill="#6C63FF"/>
<path d="M86.4048 95.9513L84.7754 96.564L85.236 97.783L86.8654 97.1703L86.4048 95.9513Z" fill="#F2F2F2"/>
<path d="M88.605 101.776L86.9756 102.388L87.4362 103.607L89.0656 102.995L88.605 101.776Z" fill="#F2F2F2"/>
<path d="M118.264 94.4236H114.056V105.135H118.264V94.4236Z" fill="#6C63FF"/>
<path d="M118.264 96.0159H114.056V97.3186H118.264V96.0159Z" fill="#F2F2F2"/>
<path d="M118.264 102.24H114.056V103.543H118.264V102.24Z" fill="#F2F2F2"/>
<path d="M113.04 94.4236H111.299V105.135H113.04V94.4236Z" fill="#6C63FF"/>
<path d="M113.04 96.0159H111.299V97.3186H113.04V96.0159Z" fill="#F2F2F2"/>
<path d="M113.04 102.24H111.299V103.543H113.04V102.24Z" fill="#F2F2F2"/>
<path d="M110.428 94.4236H108.687V105.135H110.428V94.4236Z" fill="#6C63FF"/>
<path d="M110.428 96.0159H108.687V97.3186H110.428V96.0159Z" fill="#F2F2F2"/>
<path d="M110.428 102.24H108.687V103.543H110.428V102.24Z" fill="#F2F2F2"/>
<path d="M107.009 94.4615L103.222 104.485L104.851 105.097L108.639 95.0742L107.009 94.4615Z" fill="#6C63FF"/>
<path d="M106.446 95.9514L105.985 97.1704L107.615 97.7831L108.075 96.5641L106.446 95.9514Z" fill="#F2F2F2"/>
<path d="M104.245 101.776L103.784 102.995L105.414 103.607L105.874 102.388L104.245 101.776Z" fill="#F2F2F2"/>
<path d="M119.861 105.135H70.2334V106.148H119.861V105.135Z" fill="#F2F2F2"/>
<path d="M100.996 94.4236H91.8545V105.135H100.996V94.4236Z" fill="#6C63FF"/>
<path d="M98.747 96.7396H94.1035V98.7661H98.747V96.7396Z" fill="#F2F2F2"/>
<path d="M95.482 77.1982H94.6113V86.4623H95.482V77.1982Z" fill="#F2F2F2"/>
<path d="M95.0468 87.9098C95.8482 87.9098 96.4979 87.2617 96.4979 86.4623C96.4979 85.6628 95.8482 85.0148 95.0468 85.0148C94.2454 85.0148 93.5957 85.6628 93.5957 86.4623C93.5957 87.2617 94.2454 87.9098 95.0468 87.9098Z" fill="#F2F2F2"/>
<path d="M131.503 42.3133H30.0713L31.8749 38.5498H130.436L131.503 42.3133Z" fill="#6C63FF"/>
<path d="M133.964 50.9983H25.9082L27.7119 47.2348H132.897L133.964 50.9983Z" fill="#6C63FF"/>
<path d="M144.585 29.2388C144.585 29.2388 143.128 32.976 143.432 36.6736C143.488 37.3356 143.712 37.9727 144.082 38.5249L126.232 46.9781C126.232 46.9781 118.167 47.811 120.18 51.3247C122.193 54.8384 129.489 49.5679 129.489 49.5679C129.489 49.5679 148.611 46.8071 150.12 44.0464C151.63 41.2856 152.636 29.7407 152.636 29.7407L144.585 29.2388Z" fill="#A0616A"/>
<path d="M145.34 18.9487H149.114C149.114 18.9487 151.882 19.4507 152.637 24.4702C153.391 29.4897 154.146 30.7446 153.391 30.7446C152.637 30.7446 143.579 30.4936 143.579 30.2427C143.579 29.9917 145.34 18.9487 145.34 18.9487Z" fill="#D0CDE1"/>
<path d="M19.3587 93.9231C30.0502 93.9231 38.7173 85.2774 38.7173 74.6123C38.7173 63.9473 30.0502 55.3015 19.3587 55.3015C8.66717 55.3015 0 63.9473 0 74.6123C0 85.2774 8.66717 93.9231 19.3587 93.9231Z" fill="#6C63FF"/>
<path opacity="0.1" d="M19.3584 91.2197C28.5531 91.2197 36.0069 83.7844 36.0069 74.6124C36.0069 65.4405 28.5531 58.0051 19.3584 58.0051C10.1637 58.0051 2.70996 65.4405 2.70996 74.6124C2.70996 83.7844 10.1637 91.2197 19.3584 91.2197Z" fill="black"/>
<path d="M18.5613 84.4123V81.9951C17.3364 81.9713 16.0692 81.5403 15.3301 80.9421L15.8369 79.3387C16.7152 79.9953 17.7805 80.3557 18.878 80.3676C20.3775 80.3676 21.3912 79.3864 21.3912 78.0223C21.3912 76.706 20.5675 75.8924 19.0048 75.1744C16.8506 74.2171 15.5201 73.1162 15.5201 71.0342C15.5201 69.0477 16.7662 67.54 18.7091 67.1811V64.7639H20.0185V67.0854C20.9948 67.0987 21.9472 67.3892 22.764 67.9229L22.2359 69.5025C21.4526 68.9676 20.5243 68.6837 19.575 68.6888C17.9489 68.6888 17.3364 69.7896 17.3364 70.747C17.3364 71.9914 18.1178 72.6136 19.9551 73.4753C22.1303 74.4804 23.2286 75.7249 23.2286 77.8548C23.2286 79.7454 22.067 81.5165 19.8917 81.9231V84.4123H18.5613Z" fill="#F2F2F2"/>
</g>
<defs>
<clipPath id="clip0_416_600">
<rect width="163" height="131" fill="white"/>
</clipPath>
</defs>
</svg>
