<svg width="159" height="135" viewBox="0 0 159 135" fill="none" xmlns="http://www.w3.org/2000/svg">
<g clip-path="url(#clip0_416_546)">
<path d="M153.435 56.5178C145.484 66.6961 130.48 69.0268 118.066 65.4818C114.004 64.2935 110.085 62.6605 106.381 60.6125C104.229 59.4428 102.129 58.1598 100.071 56.7926C99.565 56.4576 99.0588 56.1176 98.5578 55.7706C98.2163 55.537 97.876 55.3006 97.5368 55.0613C93.2882 52.0693 89.2062 48.787 85.1927 45.5236C75.1736 37.3772 64.88 28.98 52.5702 25.0931C50.0341 24.2927 46.7533 23.9183 45.185 26.0687C43.8244 27.9357 44.6548 30.579 45.8062 32.5817C50.077 39.9999 57.8294 44.6837 65.5887 48.2855C73.3479 51.8872 81.5671 54.8054 88.3122 60.0714C95.0573 65.3375 100.207 73.7072 98.8272 82.156C97.638 89.4367 91.6994 95.3521 84.7946 97.9301C77.8899 100.506 70.189 100.148 63.0114 98.4746C55.8338 96.8 49.02 93.8784 42.093 91.3604C37.9165 89.8404 32.4566 88.7892 29.6853 92.2673C27.3449 95.2061 28.6902 99.8418 31.5402 102.288C34.3903 104.733 38.2477 105.553 41.9282 106.288C53.3561 108.572 64.7839 110.856 76.2118 113.139C79.7173 113.838 83.3052 114.57 86.3595 116.432C89.4138 118.292 91.8778 121.542 91.7904 125.119C91.7028 128.645 89.1238 131.761 85.9631 133.322C82.8042 134.882 79.1562 135.122 75.6369 134.954C62.4486 134.322 24.639 113.349 15.5705 110.668C9.7433 108.947 3.37223 106.418 0.915018 100.857C-2.14443 93.9333 2.89005 85.5567 9.76216 82.3947C16.6326 79.2309 24.5977 79.9317 32.0859 80.9966C39.5741 82.0615 47.3092 83.4167 54.5984 81.3934C61.8874 79.3701 68.5657 72.7746 67.8468 65.2379C67.2204 58.6802 61.3196 53.7388 55.1097 51.5609C50.2486 49.8553 45.0769 49.3916 39.9705 48.6238C38.5531 48.4126 37.1409 48.1755 35.7425 47.8836C32.1611 47.1325 28.6675 46.01 25.3185 44.5343C21.804 42.989 18.4653 41.071 15.3594 38.8131C12.8822 37.0148 10.5672 35.0027 8.44099 32.7998C8.11666 32.4632 7.79577 32.1191 7.47831 31.7676C7.17635 31.4309 6.87775 31.0874 6.5861 30.737C2.79053 26.1975 -0.0132947 20.6068 0.827559 14.8461C1.66657 9.10082 6.13995 4.31739 11.4661 2.01928C14.5444 0.691594 17.8646 0.0973138 21.226 0.0114353C23.6839 -0.037735 26.1411 0.139347 28.5666 0.540447C39.7902 2.33703 50.0753 7.79547 59.789 13.7056C69.5009 19.6158 78.9658 26.1031 89.5236 30.3162C100.082 34.5312 112.1 36.3157 122.81 32.5044C133.521 28.6949 142.32 18.3001 141.796 6.93496C148.9 13.0581 154.937 20.7545 157.61 29.7477C160.284 38.7409 159.209 49.1253 153.435 56.5178Z" fill="#3F3D56"/>
<path d="M102.252 44.7722C102.941 44.7722 103.5 44.2125 103.5 43.5222C103.5 42.8318 102.941 42.2722 102.252 42.2722C101.562 42.2722 101.003 42.8318 101.003 43.5222C101.003 44.2125 101.562 44.7722 102.252 44.7722Z" fill="#6C63FF"/>
<path d="M146.351 28.9661C147.417 28.9661 148.281 28.1008 148.281 27.0335C148.281 25.9661 147.417 25.1009 146.351 25.1009C145.284 25.1009 144.42 25.9661 144.42 27.0335C144.42 28.1008 145.284 28.9661 146.351 28.9661Z" fill="#FF6584"/>
<path d="M19.7173 88.5497C20.1113 88.5497 20.4307 88.23 20.4307 87.8356C20.4307 87.4413 20.1113 87.1216 19.7173 87.1216C19.3233 87.1216 19.0039 87.4413 19.0039 87.8356C19.0039 88.23 19.3233 88.5497 19.7173 88.5497Z" fill="#FF6584"/>
<path d="M40.1934 46.7859C40.1939 47.4053 40.119 48.0224 39.9704 48.6237C38.553 48.4124 37.1408 48.1754 35.7424 47.8834C32.161 47.1323 28.6674 46.0098 25.3184 44.5341C25.8569 42.7936 27.0011 41.304 28.5433 40.3358C30.0854 39.3676 31.9233 38.985 33.7232 39.2575C35.5231 39.53 37.1657 40.4394 38.3529 41.8208C39.5401 43.2021 40.1931 44.9637 40.1934 46.7859Z" fill="#FF6584"/>
<path d="M133.996 40.302C134.399 40.302 134.726 39.9751 134.726 39.5717C134.726 39.1684 134.399 38.8414 133.996 38.8414C133.593 38.8414 133.267 39.1684 133.267 39.5717C133.267 39.9751 133.593 40.302 133.996 40.302Z" fill="#F0F0F0"/>
<path d="M67.2472 120.684C67.6501 120.684 67.9768 120.357 67.9768 119.954C67.9768 119.551 67.6501 119.224 67.2472 119.224C66.8442 119.224 66.5176 119.551 66.5176 119.954C66.5176 120.357 66.8442 120.684 67.2472 120.684Z" fill="#F0F0F0"/>
<path d="M77.7149 130.818C78.1179 130.818 78.4445 130.491 78.4445 130.088C78.4445 129.684 78.1179 129.357 77.7149 129.357C77.312 129.357 76.9854 129.684 76.9854 130.088C76.9854 130.491 77.312 130.818 77.7149 130.818Z" fill="#F0F0F0"/>
<path d="M13.0255 101.963C13.4284 101.963 13.7551 101.636 13.7551 101.233C13.7551 100.829 13.4284 100.502 13.0255 100.502C12.6225 100.502 12.2959 100.829 12.2959 101.233C12.2959 101.636 12.6225 101.963 13.0255 101.963Z" fill="#F0F0F0"/>
<path d="M48.8878 88.3942C49.2907 88.3942 49.6174 88.0672 49.6174 87.6639C49.6174 87.2606 49.2907 86.9336 48.8878 86.9336C48.4848 86.9336 48.1582 87.2606 48.1582 87.6639C48.1582 88.0672 48.4848 88.3942 48.8878 88.3942Z" fill="#F0F0F0"/>
<path d="M45.2843 15.9126C45.6872 15.9126 46.0139 15.5856 46.0139 15.1823C46.0139 14.7789 45.6872 14.452 45.2843 14.452C44.8813 14.452 44.5547 14.7789 44.5547 15.1823C44.5547 15.5856 44.8813 15.9126 45.2843 15.9126Z" fill="#F0F0F0"/>
<path d="M89.3829 73.1077C89.7859 73.1077 90.1125 72.7807 90.1125 72.3774C90.1125 71.9741 89.7859 71.6471 89.3829 71.6471C88.98 71.6471 88.6533 71.9741 88.6533 72.3774C88.6533 72.7807 88.98 73.1077 89.3829 73.1077Z" fill="#F0F0F0"/>
<path d="M94.8731 85.8177C95.2761 85.8177 95.6028 85.4907 95.6028 85.0874C95.6028 84.684 95.2761 84.3571 94.8731 84.3571C94.4702 84.3571 94.1436 84.684 94.1436 85.0874C94.1436 85.4907 94.4702 85.8177 94.8731 85.8177Z" fill="#F0F0F0"/>
<path d="M29.1089 17.5135C29.1142 21.2009 28.2438 24.8367 26.5694 28.1212C26.348 28.554 26.1135 28.9794 25.8658 29.3973C23.4138 33.5422 19.7452 36.83 15.3594 38.813C12.8823 37.0148 10.5673 35.0027 8.44101 32.7998C8.11668 32.4632 7.79579 32.1191 7.47833 31.7676C7.17637 31.4309 6.87777 31.0874 6.58612 30.737C2.79055 26.1975 -0.0132731 20.6068 0.82758 14.8461C1.66659 9.1008 6.13998 4.31736 11.4661 2.01924C14.5444 0.691562 17.8647 0.0972921 21.2261 0.0114136C23.8544 2.33478 25.9263 5.22067 27.2883 8.45499C27.4599 8.86206 27.6178 9.27427 27.767 9.69164C28.6576 12.203 29.1114 14.8486 29.1089 17.5135Z" fill="#6C63FF"/>
<path d="M39.7472 18.7158C39.7472 22.2935 36.2571 25.6119 29.9186 28.0629C28.6506 28.5541 27.2933 28.9989 25.8657 29.3974C20.5224 30.8883 14.1633 31.7144 7.47815 31.7677C7.17619 31.431 6.87759 31.0875 6.58594 30.7371C6.65799 30.7388 6.73004 30.7388 6.8021 30.7388C14.062 30.7388 20.9497 29.8182 26.5692 28.1213C27.6073 27.8069 28.6025 27.4669 29.548 27.101C35.3751 24.8493 38.7177 21.792 38.7177 18.7158C38.7177 15.6397 35.3751 12.5841 29.548 10.3307C28.9714 10.1074 28.3778 9.8944 27.7669 9.69173C27.6176 9.27436 27.4597 8.86214 27.2882 8.45508C28.201 8.74019 29.0778 9.04478 29.9186 9.36883C36.2571 11.8198 39.7472 15.1399 39.7472 18.7158Z" fill="#E4E4E4"/>
<path d="M7.87803 5.95066C8.28097 5.95066 8.60762 5.62369 8.60762 5.22036C8.60762 4.81702 8.28097 4.49005 7.87803 4.49005C7.47509 4.49005 7.14844 4.81702 7.14844 5.22036C7.14844 5.62369 7.47509 5.95066 7.87803 5.95066Z" fill="#F0F0F0"/>
<path d="M23.1495 10.5881C23.5525 10.5881 23.8791 10.2611 23.8791 9.85781C23.8791 9.45447 23.5525 9.1275 23.1495 9.1275C22.7466 9.1275 22.4199 9.45447 22.4199 9.85781C22.4199 10.2611 22.7466 10.5881 23.1495 10.5881Z" fill="#F0F0F0"/>
<path d="M15.2561 24.3452C19.1745 24.3452 22.351 21.1656 22.351 17.2433C22.351 13.321 19.1745 10.1414 15.2561 10.1414C11.3376 10.1414 8.16113 13.321 8.16113 17.2433C8.16113 21.1656 11.3376 24.3452 15.2561 24.3452Z" fill="#F0F0F0"/>
<path opacity="0.3" d="M146.282 54.8311C144.689 55.3017 141.179 55.6487 137.318 55.8617C133.459 56.0729 129.226 56.1657 125.046 56.255C117.729 56.413 110.413 56.5716 103.098 56.7307C102.092 56.7531 101.083 56.7737 100.071 56.7926C99.5648 56.4577 99.0586 56.1176 98.5576 55.7706C99.455 55.7758 100.352 55.7706 101.243 55.7535C105.047 55.6779 108.268 55.3807 111.936 55.2399C117.582 55.0218 123.676 55.1935 129.56 55.2811C135.444 55.3704 142.148 55.3378 146.282 54.8311Z" fill="#F0F0F0"/>
<path opacity="0.3" d="M33.9886 108.974L10.666 89.526L33.3235 109.753C33.3673 109.827 33.4282 109.89 33.501 109.935C33.5738 109.981 33.6565 110.009 33.7421 110.016C33.8277 110.023 33.9139 110.01 33.9934 109.978C34.0729 109.945 34.1436 109.894 34.1994 109.828C34.2552 109.763 34.2947 109.685 34.3145 109.602C34.3343 109.518 34.3339 109.431 34.3133 109.347C34.2927 109.264 34.2524 109.186 34.196 109.121C34.1395 109.056 34.0684 109.006 33.9886 108.974H33.9886Z" fill="#F0F0F0"/>
<path d="M16.2853 35.3212C16.6882 35.3212 17.0148 34.9943 17.0148 34.5909C17.0148 34.1876 16.6882 33.8606 16.2853 33.8606C15.8823 33.8606 15.5557 34.1876 15.5557 34.5909C15.5557 34.9943 15.8823 35.3212 16.2853 35.3212Z" fill="#F0F0F0"/>
<path d="M77.5611 119.212L80.5788 119.212L82.0145 107.56L77.5605 107.561L77.5611 119.212Z" fill="#FFB6B6"/>
<path d="M76.791 118.226L77.6404 118.226L80.9567 116.876L82.7341 118.226H82.7344C83.7388 118.226 84.7021 118.625 85.4124 119.336C86.1226 120.047 86.5217 121.011 86.5218 122.017V122.14L76.7912 122.14L76.791 118.226Z" fill="#2F2E41"/>
<path d="M54.9612 119.212L51.9435 119.212L50.5078 107.56L54.9618 107.561L54.9612 119.212Z" fill="#FFB6B6"/>
<path d="M55.7306 122.14L46 122.14V122.017C46.0001 121.011 46.3991 120.047 47.1094 119.336C47.8196 118.625 48.783 118.226 49.7874 118.226H49.7876L51.5651 116.876L54.8813 118.226L55.7307 118.226L55.7306 122.14Z" fill="#2F2E41"/>
<path d="M65.774 29.918L62.7184 32.2471L54.6013 34.3988C54.6013 34.3988 57.5098 54.8311 56.1371 56.2052C54.7644 57.5792 56.0024 57.6161 55.7266 59.4011C55.4507 61.1861 54.3516 65.8988 54.3516 65.8988H78.5779C78.5779 65.8988 78.7731 62.9699 77.5789 62.3357C76.3846 61.7014 78.6797 58.7409 77.7038 58.246C76.7278 57.751 78.1005 53.457 78.1005 53.457L81.0754 39.3988L73.1627 33.2019L71.9593 30.2996L65.774 29.918Z" fill="#6C63FF"/>
<path d="M69.5875 48.1761C70.1714 48.1761 70.6447 47.7023 70.6447 47.1178C70.6447 46.5334 70.1714 46.0596 69.5875 46.0596C69.0036 46.0596 68.5303 46.5334 68.5303 47.1178C68.5303 47.7023 69.0036 48.1761 69.5875 48.1761Z" fill="#F2F2F2"/>
<path d="M54.3519 65.8987L53.3528 91.6487C53.3528 91.6487 49.0393 110.667 49.7886 111.167C50.5379 111.667 50.8553 114.649 50.8553 114.649L55.1011 115.149C55.1011 115.149 55.1011 113.149 56.1001 112.399C57.0992 111.649 66.3401 76.3987 66.3401 76.3987L75.3554 110.48C75.3554 110.48 75.5811 112.399 76.3304 112.399C77.0796 112.399 77.3294 115.149 77.3294 115.149H81.5752V112.399C81.5752 112.399 83.483 111.793 82.7337 109.793C81.9845 107.793 78.5781 65.8987 78.5781 65.8987H54.3519Z" fill="#2F2E41"/>
<path d="M68.9471 28.3835C71.7748 28.3835 74.0671 26.089 74.0671 23.2585C74.0671 20.4281 71.7748 18.1335 68.9471 18.1335C66.1194 18.1335 63.8271 20.4281 63.8271 23.2585C63.8271 26.089 66.1194 28.3835 68.9471 28.3835Z" fill="#FFB6B6"/>
<path opacity="0.1" d="M77.7041 46.2738L78.7031 47.0238L79.2026 43.5237L77.7041 46.2738Z" fill="black"/>
<path d="M55.0806 34.3789C55.0806 34.3789 53.8318 34.1289 53.0825 36.3789C52.3332 38.6289 49.5859 47.1289 49.5859 48.6289C49.5859 50.1289 66.6951 56.7473 66.6951 56.7473L64.9149 50.4961L57.0786 46.3789L55.0806 34.3789Z" fill="#6C63FF"/>
<path d="M67.4883 55.8205C69.0993 55.8205 70.4053 54.5132 70.4053 52.9006C70.4053 51.288 69.0993 49.9808 67.4883 49.9808C65.8773 49.9808 64.5713 51.288 64.5713 52.9006C64.5713 54.5132 65.8773 55.8205 67.4883 55.8205Z" fill="#FFB6B6"/>
<path opacity="0.1" d="M56.8506 43.2823L57.079 46.3789L64.3253 50.1861L57.8801 45.8586L56.8506 43.2823Z" fill="black"/>
<path d="M74.2703 43.7237H74.1763V41.1459C74.1763 40.95 74.1377 40.756 74.0628 40.575C73.9879 40.394 73.8781 40.2295 73.7397 40.091C73.6013 39.9524 73.437 39.8425 73.2562 39.7676C73.0753 39.6926 72.8815 39.654 72.6858 39.654H67.2298C67.034 39.654 66.8402 39.6926 66.6594 39.7676C66.4785 39.8425 66.3142 39.9524 66.1758 40.091C66.0374 40.2295 65.9276 40.394 65.8527 40.575C65.7778 40.756 65.7393 40.95 65.7393 41.1459V55.2878C65.7393 55.4837 65.7778 55.6777 65.8527 55.8588C65.9276 56.0398 66.0374 56.2042 66.1758 56.3428C66.3142 56.4813 66.4785 56.5912 66.6594 56.6662C66.8402 56.7412 67.034 56.7798 67.2297 56.7798H72.6858C72.8815 56.7798 73.0753 56.7412 73.2562 56.6662C73.437 56.5912 73.6013 56.4813 73.7397 56.3428C73.8781 56.2042 73.9879 56.0398 74.0628 55.8588C74.1377 55.6778 74.1763 55.4837 74.1763 55.2878V45.5586H74.2703V43.7237Z" fill="#F0F0F0"/>
<path d="M81.0762 39.3987C81.0762 39.3987 81.8254 39.8987 82.3249 42.1487C82.8244 44.3987 86.0713 52.8987 84.8225 54.8987C83.5737 56.8987 83.2051 59.0333 78.9592 56.0333L73.084 50.6487L77.3298 46.6487L79.0781 47.8987L81.0762 39.3987Z" fill="#6C63FF"/>
<path d="M70.0242 45.957C70.7139 45.957 71.2729 45.3974 71.2729 44.707C71.2729 44.0167 70.7139 43.457 70.0242 43.457C69.3345 43.457 68.7754 44.0167 68.7754 44.707C68.7754 45.3974 69.3345 45.957 70.0242 45.957Z" fill="#6C63FF"/>
<path d="M73.6397 50.3654C75.2507 50.3654 76.5567 49.0582 76.5567 47.4456C76.5567 45.833 75.2507 44.5257 73.6397 44.5257C72.0286 44.5257 70.7227 45.833 70.7227 47.4456C70.7227 49.0582 72.0286 50.3654 73.6397 50.3654Z" fill="#FFB6B6"/>
<path opacity="0.1" d="M56.7122 52.6281L65.0861 56.3358L56.4795 54.6521L56.7122 52.6281Z" fill="black"/>
<path d="M63.7821 24.2799L63.0791 21.6019C62.8956 20.9031 62.7107 20.1903 62.7519 19.469C62.7931 18.7477 63.0988 18.0033 63.7059 17.6126C64.3129 17.2218 65.2397 17.3141 65.6303 17.9216C65.7046 16.9516 66.5862 16.2055 67.5215 15.9411C68.4569 15.6768 69.45 15.7813 70.4209 15.8259C71.3918 15.8705 72.4166 15.8394 73.2546 15.3465C73.3184 15.5383 73.3142 15.7462 73.2427 15.9353C73.1711 16.1243 73.0366 16.2829 72.8618 16.3841C73.0701 16.441 73.2922 16.4166 73.4832 16.3158C73.6742 16.2149 73.8198 16.0452 73.8905 15.841C73.8969 16.4028 73.6895 16.946 73.3103 17.3603C73.672 17.1807 74.0874 17.1422 74.4758 17.2523C74.8642 17.3624 75.1978 17.6132 75.4116 17.9559C75.8393 18.698 75.5997 19.63 75.3495 20.4493L74.0653 24.6543C73.8706 24.0151 73.8339 23.3402 73.7297 22.6801C73.6255 22.02 73.4402 21.3459 73.0048 20.8392C72.5695 20.3325 71.8301 20.039 71.2115 20.2906C70.8645 20.4318 70.5999 20.7181 70.2866 20.9237C69.6437 21.3454 68.826 21.4058 68.0622 21.32C67.2984 21.2342 66.5541 21.0165 65.7905 20.9296C65.3123 20.8751 64.7787 20.8895 64.4179 21.2083C64.1698 21.4664 64.0059 21.7939 63.9481 22.1474C63.7778 22.8519 63.7108 23.5775 63.7494 24.3013" fill="#2F2E41"/>
</g>
<defs>
<clipPath id="clip0_416_546">
<rect width="159" height="135" fill="white"/>
</clipPath>
</defs>
</svg>
