<svg width="241" height="125" viewBox="0 0 241 125" fill="none" xmlns="http://www.w3.org/2000/svg">
<path d="M57.8096 122.877L51.8923 113.455L57.8124 123.904L57.8156 124.978C58.2377 124.973 58.6556 124.956 59.0692 124.929L58.5866 111.137L58.5929 111.03L58.5821 111.01L58.5361 109.707L64.7232 99.3799L58.5297 108.731L58.5112 109.007L58.1466 98.5865L63.4656 87.902L58.105 96.7555L57.8557 75.1571L57.8545 75.0852L57.8537 75.1559L57.7323 92.1848L52.6497 85.3713L57.7368 93.6515L57.7603 102.978L53.0445 93.9705L57.763 104.35L57.776 109.536L50.9258 96.9935L57.7814 111.345L57.8096 122.877Z" fill="#E2E2E2"/>
<path d="M108.588 122.877L102.671 113.455L108.591 123.904L108.594 124.978C109.016 124.973 109.434 124.956 109.848 124.929L109.365 111.137L109.371 111.03L109.36 111.01L109.314 109.707L115.502 99.3799L109.308 108.731L109.29 109.007L108.925 98.5865L114.244 87.902L108.883 96.7555L108.634 75.1571L108.633 75.0852L108.632 75.1559L108.511 92.1848L103.428 85.3713L108.515 93.6515L108.539 102.978L103.823 93.9705L108.541 104.35L108.554 109.536L101.704 96.9936L108.56 111.345L108.588 122.877Z" fill="#E2E2E2"/>
<path d="M6.98252 123.484L2.70962 116.68L6.9845 124.225L6.98679 125C7.29162 124.997 7.59338 124.985 7.89206 124.965L7.54355 115.006L7.54813 114.929L7.54028 114.914L7.5071 113.973L11.9748 106.516L7.50249 113.268L7.48911 113.468L7.22584 105.943L11.0666 98.228L7.19582 104.621L7.01577 89.025L7.01494 88.9731L7.01432 89.0242L6.92666 101.321L3.25658 96.4006L6.9299 102.38L6.94695 109.115L3.54165 102.61L6.94883 110.105L6.95825 113.85L2.01172 104.793L6.96213 115.156L6.98252 123.484Z" fill="#E2E2E2"/>
<path d="M232.087 122.877L226.17 113.455L232.09 123.904L232.093 124.978C232.515 124.973 232.933 124.956 233.347 124.929L232.864 111.137L232.87 111.03L232.859 111.01L232.813 109.707L239.001 99.3799L232.807 108.731L232.789 109.007L232.424 98.5865L237.743 87.902L232.382 96.7555L232.133 75.1571L232.132 75.0852L232.131 75.1559L232.01 92.1848L226.927 85.3713L232.014 93.6515L232.038 102.978L227.322 93.9705L232.04 104.35L232.053 109.536L225.203 96.9936L232.059 111.345L232.087 122.877Z" fill="#E2E2E2"/>
<path d="M71.6095 108.652H103.53V107.295H71.6095V108.652Z" fill="#6C63FF"/>
<path d="M69.9865 107.294H101.907V105.937H69.9865V107.294Z" fill="#6C63FF"/>
<path d="M71.88 105.938H103.801V104.58H71.88V105.938Z" fill="#6C63FF"/>
<path d="M75.1261 104.58H107.047V103.223H75.1261V104.58Z" fill="#6C63FF"/>
<path d="M47.9659 105.121H49.0742V97.2259H47.9659V105.121Z" fill="#3F3D56"/>
<path d="M47.9631 97.1258L48.3799 98.1562L89.3924 81.4536L88.9756 80.4232L47.9631 97.1258Z" fill="#3F3D56"/>
<path d="M27.4623 116.909H37.1045V113.128H27.4623V116.909Z" fill="#3F3D56"/>
<path d="M28.3488 120.69H75.8945V116.464H28.3488V120.69Z" fill="#3F3D56"/>
<path d="M36.1621 118.577H47.5776V104.176H39.0436L36.1621 111.439V118.577Z" fill="#E2E2E2"/>
<path d="M40.9282 109.959H45.8047V105.066H40.9282V109.959Z" fill="white"/>
<path d="M37.2705 110.014H40.3739V105.121H39.0437L37.2705 110.014Z" fill="white"/>
<path d="M44.4747 114.852H45.583V112.739H44.4747V114.852Z" fill="#3F3D56"/>
<path d="M39.4316 110.348H39.3762C39.097 110.348 38.8292 110.237 38.6317 110.038C38.4343 109.84 38.3234 109.572 38.3234 109.291C38.3234 109.011 38.4343 108.743 38.6317 108.544C38.8292 108.346 39.097 108.235 39.3762 108.235H39.4316V110.348Z" fill="#3F3D56"/>
<path d="M80.6602 118.577H80.6047C80.3255 118.577 80.0577 118.466 79.8602 118.268C79.6628 118.069 79.5519 117.801 79.5519 117.521C79.5519 117.24 79.6628 116.972 79.8602 116.774C80.0577 116.575 80.3255 116.464 80.6047 116.464H80.6602V118.577V118.577Z" fill="#3F3D56"/>
<path d="M31.7289 116.448C30.9047 116.459 30.0934 116.656 29.3555 117.024C28.6176 117.393 27.972 117.924 27.4668 118.577H25.3008L27.4065 112.691L37.2149 110.75L36.9379 118.577H35.991C35.4857 117.924 34.8401 117.393 34.1022 117.024C33.3643 116.656 32.5531 116.459 31.7289 116.448Z" fill="#E2E2E2"/>
<path d="M31.6189 124.805C34.2815 124.805 36.44 122.639 36.44 119.967C36.44 117.296 34.2815 115.13 31.6189 115.13C28.9563 115.13 26.7979 117.296 26.7979 119.967C26.7979 122.639 28.9563 124.805 31.6189 124.805Z" fill="#3F3D56"/>
<path d="M31.6185 122.513C33.0198 122.513 34.1559 121.373 34.1559 119.967C34.1559 118.561 33.0198 117.421 31.6185 117.421C30.2171 117.421 29.0811 118.561 29.0811 119.967C29.0811 121.373 30.2171 122.513 31.6185 122.513Z" fill="#E2E2E2"/>
<path d="M75.1744 124.749C77.5004 124.749 79.3859 122.857 79.3859 120.523C79.3859 118.189 77.5004 116.297 75.1744 116.297C72.8484 116.297 70.9629 118.189 70.9629 120.523C70.9629 122.857 72.8484 124.749 75.1744 124.749Z" fill="#3F3D56"/>
<path d="M75.1746 122.747C76.3988 122.747 77.3912 121.751 77.3912 120.523C77.3912 119.295 76.3988 118.299 75.1746 118.299C73.9504 118.299 72.958 119.295 72.958 120.523C72.958 121.751 73.9504 122.747 75.1746 122.747Z" fill="#E2E2E2"/>
<path d="M47.2458 119.022H49.5732V102.174H47.2458V119.022Z" fill="#3F3D56"/>
<path d="M47.2454 116.965H80.7158V115.964H47.2454V116.965Z" fill="#3F3D56"/>
<path d="M38.7667 110.681H39.875V110.237H38.7667V110.681Z" fill="#3F3D56"/>
<path d="M87.7534 108.643C87.7429 108.632 87.735 108.618 87.7301 108.603C87.7252 108.588 87.7236 108.572 87.7252 108.557L89.2537 94.0539C89.2566 94.0266 89.2694 94.0014 89.2896 93.9831C89.3099 93.9647 89.3362 93.9545 89.3635 93.9543H89.364C89.3912 93.9544 89.4174 93.9644 89.4377 93.9826C89.458 94.0007 89.471 94.0258 89.4741 94.0529L91.1272 108.526C91.129 108.541 91.1275 108.557 91.1228 108.572C91.1181 108.587 91.1104 108.6 91.1001 108.612C91.0898 108.624 91.0772 108.633 91.0631 108.64C91.049 108.646 91.0336 108.65 91.0181 108.65L87.8365 108.68H87.8354C87.82 108.68 87.8047 108.677 87.7906 108.67C87.7765 108.664 87.7638 108.655 87.7534 108.643ZM89.3684 95.081L87.9587 108.456L90.8929 108.428L89.3684 95.081Z" fill="#3F3D56"/>
<path d="M27.4277 112.777L27.4796 112.797C27.7407 112.896 27.952 113.095 28.0668 113.351C28.1817 113.606 28.1907 113.897 28.0919 114.159C27.9931 114.421 27.7946 114.633 27.5401 114.748C27.2855 114.863 26.9958 114.872 26.7346 114.773L26.6828 114.754L27.4277 112.777Z" fill="#3F3D56"/>
<path d="M88.8614 96.6699H89.9697V80.4341H88.8614V96.6699Z" fill="#3F3D56"/>
<path d="M48.5204 99.0052C49.3773 99.0052 50.072 98.3082 50.072 97.4484C50.072 96.5886 49.3773 95.8915 48.5204 95.8915C47.6634 95.8915 46.9688 96.5886 46.9688 97.4484C46.9688 98.3082 47.6634 99.0052 48.5204 99.0052Z" fill="#3F3D56"/>
<path d="M50.7794 115.98H82.7002V114.623H50.7794V115.98Z" fill="#6C63FF"/>
<path d="M52.673 114.623H84.5938V113.266H52.673V114.623Z" fill="#6C63FF"/>
<path d="M51.3204 113.538H83.2412V112.18H51.3204V113.538Z" fill="#6C63FF"/>
<path d="M53.214 112.18H85.1348V110.823H53.214V112.18Z" fill="#6C63FF"/>
<path d="M103.428 33.1801C104.445 33.1789 105.429 33.5466 106.197 34.2154C106.804 34.049 107.441 34.0209 108.06 34.1332C108.573 33.3866 109.31 32.8241 110.164 32.5278C111.018 32.2315 111.945 32.2171 112.807 32.4865C113.67 32.756 114.425 33.2952 114.96 34.0255C115.496 34.7557 115.785 35.6387 115.785 36.5454H99.2842C99.4865 35.5932 100.008 34.7395 100.763 34.127C101.517 33.5145 102.458 33.1802 103.428 33.1801Z" fill="#E2E2E2"/>
<path d="M78.6041 46.5746C79.5658 46.5735 80.4956 46.9211 81.2221 47.5534C81.7961 47.3961 82.3979 47.3695 82.9834 47.4757C83.4682 46.7699 84.1652 46.238 84.9727 45.9579C85.7801 45.6778 86.6557 45.6642 87.4714 45.9189C88.2871 46.1736 89.0003 46.6834 89.5067 47.3738C90.0132 48.0642 90.2863 48.899 90.2862 49.7562H74.6865C74.8778 48.856 75.3712 48.0489 76.0842 47.4698C76.7973 46.8908 77.6868 46.5748 78.6041 46.5746Z" fill="#E2E2E2"/>
<path d="M53.7851 24.4825C54.7857 24.4813 55.7531 24.8429 56.509 25.5008C57.1062 25.3371 57.7324 25.3095 58.3416 25.42C58.846 24.6856 59.5712 24.1322 60.4113 23.8408C61.2514 23.5494 62.1624 23.5352 63.0112 23.8002C63.8599 24.0652 64.6019 24.5957 65.1289 25.314C65.6558 26.0323 65.94 26.9008 65.9399 27.7928H49.709C49.908 26.8561 50.4214 26.0164 51.1633 25.4139C51.9051 24.8114 52.8306 24.4826 53.7851 24.4825Z" fill="#E2E2E2"/>
<path d="M160.956 66.5504V100.453H174.096V66.0795L171.046 66.1888V59.2518H168.833L168.469 43.8879C169.362 43.3042 169.99 41.9178 169.99 40.299C169.991 39.8343 169.937 39.3711 169.829 38.9191C170.252 38.4604 170.511 37.874 170.566 37.2518C170.62 36.6296 170.468 36.0067 170.132 35.4807C170.413 35.7269 170.74 35.9146 171.093 36.0331C171.447 36.1516 171.821 36.1983 172.192 36.1708C172.564 36.1432 172.927 36.0418 173.259 35.8724C173.592 35.703 173.887 35.4691 174.129 35.1842C174.371 34.8993 174.554 34.569 174.667 34.2126C174.78 33.8563 174.822 33.4808 174.79 33.1081C174.757 32.7354 174.651 32.3729 174.478 32.0416C174.305 31.7103 174.068 31.4168 173.781 31.1782C174.264 30.9994 174.688 30.6913 175.009 30.2874C175.329 29.8834 175.534 29.3991 175.599 28.8869C175.664 28.3747 175.589 27.8544 175.38 27.3823C175.172 26.9103 174.838 26.5046 174.416 26.2094C173.994 25.9141 173.499 25.7406 172.986 25.7077C172.472 25.6747 171.959 25.7836 171.503 26.0225C171.047 26.2614 170.665 26.6212 170.398 27.0628C170.131 27.5043 169.99 28.0108 169.99 28.5271C169.99 28.5685 169.991 28.6096 169.993 28.6504C169.606 28.532 169.199 28.4983 168.798 28.5518C168.397 28.6053 168.013 28.7448 167.671 28.9606C167.328 29.1764 167.036 29.4636 166.815 29.8027C166.593 30.1418 166.446 30.5248 166.385 30.9257C166.034 30.7161 165.641 30.5857 165.235 30.5435C164.828 30.5013 164.418 30.5483 164.031 30.6814C163.645 30.8145 163.292 31.0303 162.997 31.314C162.702 31.5977 162.472 31.9424 162.323 32.3241C162.174 32.7059 162.11 33.1156 162.134 33.5249C162.159 33.9341 162.272 34.333 162.466 34.6939C162.66 35.0549 162.93 35.3691 163.257 35.6149C163.584 35.8607 163.96 36.0322 164.36 36.1174C164.359 36.1379 164.358 36.1582 164.358 36.1789C164.62 36.9707 164.953 37.737 165.353 38.4683C165.157 39.0586 165.059 39.677 165.062 40.299C165.062 41.9178 165.691 43.3042 166.583 43.8879L166.219 59.2518H164.006V66.441L160.956 66.5504ZM169.161 34.1775L169.169 34.1776C169.209 34.1776 169.25 34.1763 169.29 34.1746C169.315 34.2581 169.344 34.3398 169.377 34.4198C169.31 34.335 169.238 34.2541 169.161 34.1775Z" fill="#E2E2E2"/>
<path d="M153.722 124.586H193.611V78.2832H153.722V124.586Z" fill="#3F3D56"/>
<path d="M168.288 124.586H179.043V115.168H168.288V124.586Z" fill="#E2E2E2"/>
<path d="M140.427 17.3592C140.426 17.3934 140.424 17.4273 140.424 17.4616C140.424 18.0914 140.549 18.7147 140.794 19.2947C141.038 19.8747 141.396 20.3994 141.847 20.8375C141.917 20.9882 141.996 21.135 142.082 21.2773C141.756 22.2611 141.592 23.2918 141.597 24.3286C141.597 27.9044 143.436 30.8031 145.704 30.8031C147.972 30.8031 149.81 27.9044 149.81 24.3286C149.812 23.554 149.722 22.782 149.542 22.0286C150.247 21.2641 150.678 20.2868 150.769 19.2498C150.861 18.2128 150.607 17.1747 150.047 16.2981C150.515 16.7083 151.06 17.0212 151.649 17.2186C152.239 17.416 152.861 17.4939 153.481 17.448C154.101 17.402 154.705 17.2329 155.259 16.9507C155.813 16.6684 156.306 16.2785 156.708 15.8037C157.111 15.3288 157.416 14.7784 157.605 14.1845C157.794 13.5905 157.863 12.9648 157.809 12.3437C157.755 11.7226 157.579 11.1184 157.29 10.5662C157.002 10.0141 156.607 9.5249 156.128 9.12715C156.933 8.8292 157.641 8.31571 158.175 7.64246C158.709 6.96921 159.049 6.16193 159.159 5.30833C159.268 4.45474 159.142 3.58746 158.794 2.80071C158.446 2.01396 157.891 1.33782 157.187 0.845752C156.483 0.35368 155.659 0.0644895 154.803 0.00959249C153.947 -0.0453045 153.092 0.136192 152.332 0.534368C151.571 0.932543 150.934 1.53217 150.49 2.26811C150.045 3.00405 149.81 3.84817 149.81 4.70876C149.81 4.7777 149.812 4.8461 149.815 4.91431C149.171 4.71681 148.492 4.66075 147.824 4.74994C147.156 4.83913 146.515 5.07147 145.945 5.43119C145.374 5.79091 144.887 6.26958 144.518 6.83471C144.148 7.39984 143.904 8.03819 143.802 8.70641C143.216 8.35702 142.562 8.13961 141.885 8.06929C141.208 7.99896 140.523 8.0774 139.879 8.29916C139.235 8.52092 138.646 8.88068 138.155 9.35347C137.663 9.82626 137.28 10.4008 137.032 11.0371C136.784 11.6734 136.676 12.3563 136.718 13.0383C136.759 13.7204 136.948 14.3852 137.271 14.9868C137.594 15.5883 138.043 16.1121 138.588 16.5218C139.133 16.9314 139.761 17.2172 140.427 17.3592ZM148.441 14.1263C148.509 14.1263 148.576 14.124 148.643 14.1212C148.685 14.2603 148.734 14.3966 148.788 14.5299C148.676 14.3885 148.556 14.2536 148.429 14.126L148.441 14.1263Z" fill="#E2E2E2"/>
<path d="M143.357 62.9797H148.051L147.883 55.9171V55.9144L147.269 30.0173C146.798 30.3062 146.256 30.4591 145.704 30.4591C145.152 30.4591 144.61 30.3062 144.139 30.0173L143.525 55.9144V55.9171L143.357 62.9797Z" fill="#6C63FF"/>
<path d="M134.755 68.0797V124.586H156.653V67.2952L151.57 67.4771V55.9169H139.838V67.8978L134.755 68.0797Z" fill="#6C63FF"/>
<path d="M196.351 17.3592C196.35 17.3934 196.348 17.4273 196.348 17.4616C196.347 18.0914 196.473 18.7147 196.717 19.2947C196.962 19.8747 197.32 20.3994 197.771 20.8375C197.841 20.9882 197.92 21.135 198.006 21.2773C197.679 22.2611 197.516 23.2918 197.521 24.3286C197.521 27.9044 199.36 30.8031 201.628 30.8031C203.895 30.8031 205.734 27.9044 205.734 24.3286C205.736 23.554 205.646 22.782 205.466 22.0286C206.17 21.2641 206.602 20.2868 206.693 19.2498C206.785 18.2128 206.531 17.1747 205.971 16.2981C206.439 16.7083 206.984 17.0212 207.573 17.2186C208.162 17.416 208.785 17.494 209.405 17.448C210.024 17.402 210.629 17.233 211.183 16.9507C211.737 16.6684 212.23 16.2786 212.632 15.8037C213.035 15.3288 213.34 14.7785 213.529 14.1845C213.718 13.5905 213.787 12.9648 213.733 12.3437C213.679 11.7226 213.503 11.1184 213.214 10.5662C212.926 10.0141 212.531 9.5249 212.052 9.12715C212.857 8.8292 213.565 8.31571 214.099 7.64246C214.633 6.96921 214.973 6.16193 215.082 5.30834C215.192 4.45474 215.065 3.58746 214.718 2.80071C214.37 2.01396 213.814 1.33782 213.111 0.845752C212.407 0.353679 211.583 0.0644896 210.727 0.00959252C209.871 -0.0453045 209.016 0.136192 208.256 0.534368C207.495 0.932543 206.858 1.53217 206.414 2.26811C205.969 3.00405 205.734 3.84817 205.734 4.70876C205.734 4.7777 205.736 4.8461 205.739 4.91431C205.095 4.71681 204.415 4.66075 203.748 4.74994C203.08 4.83913 202.439 5.07147 201.868 5.43119C201.298 5.79091 200.811 6.26958 200.442 6.83471C200.072 7.39984 199.828 8.03819 199.725 8.70641C199.14 8.35702 198.486 8.13961 197.809 8.06929C197.131 7.99896 196.447 8.0774 195.803 8.29916C195.159 8.52092 194.57 8.88068 194.079 9.35347C193.587 9.82626 193.204 10.4008 192.956 11.0371C192.707 11.6734 192.6 12.3563 192.641 13.0383C192.683 13.7204 192.871 14.3852 193.194 14.9868C193.517 15.5883 193.967 16.1121 194.512 16.5218C195.057 16.9314 195.684 17.2172 196.351 17.3592ZM204.365 14.1263C204.433 14.1263 204.5 14.124 204.567 14.1211C204.609 14.2603 204.657 14.3966 204.712 14.5299C204.6 14.3885 204.48 14.2536 204.353 14.126L204.365 14.1263Z" fill="#E2E2E2"/>
<path d="M199.281 62.9796H203.974L203.192 30.0183C202.181 30.3829 201.075 30.3829 200.063 30.0183L199.281 62.9796Z" fill="#6C63FF"/>
<path d="M190.678 68.0797V124.586H212.579V67.2952L210.78 67.3604L207.493 67.4771V55.9169H195.761V67.8978L190.678 68.0797Z" fill="#6C63FF"/>
<path d="M179.617 89.3H185.027V83.8714H179.617V89.3Z" fill="white"/>
<path d="M170.961 89.3H176.371V83.8714H170.961V89.3Z" fill="white"/>
<path d="M162.305 89.3H167.715V83.8714H162.305V89.3Z" fill="white"/>
<path d="M179.617 97.9858H185.027V92.5573H179.617V97.9858Z" fill="white"/>
<path d="M170.961 97.9858H176.371V92.5573H170.961V97.9858Z" fill="white"/>
<path d="M162.305 97.9858H167.715V92.5573H162.305V97.9858Z" fill="white"/>
<path d="M179.617 106.672H185.027V101.243H179.617V106.672Z" fill="white"/>
<path d="M170.961 106.672H176.371V101.243H170.961V106.672Z" fill="white"/>
<path d="M162.305 106.672H167.715V101.243H162.305V106.672Z" fill="white"/>
<path d="M142.999 87.1287H148.409V81.7002H142.999V87.1287Z" fill="white"/>
<path d="M142.999 95.8143H148.409V90.3857H142.999V95.8143Z" fill="white"/>
<path d="M142.999 104.5H148.409V99.0715H142.999V104.5Z" fill="white"/>
<path d="M142.999 113.186H148.409V107.757H142.999V113.186Z" fill="white"/>
<path d="M198.878 87.1287H204.288V81.7002H198.878V87.1287Z" fill="white"/>
<path d="M198.878 95.8143H204.288V90.3857H198.878V95.8143Z" fill="white"/>
<path d="M198.878 104.5H204.288V99.0715H198.878V104.5Z" fill="white"/>
<path d="M198.878 113.186H204.288V107.757H198.878V113.186Z" fill="white"/>
<path d="M240.217 124.395H0V124.938H240.217V124.395Z" fill="#3F3D56"/>
</svg>
