<svg width="17" height="19" viewBox="0 0 17 19" fill="none" xmlns="http://www.w3.org/2000/svg">
<path d="M1.83333 17.1667C1.83333 17.6529 2.02649 18.1192 2.3703 18.463C2.71412 18.8069 3.18044 19 3.66667 19H12.8333C13.3196 19 13.7859 18.8069 14.1297 18.463C14.4735 18.1192 14.6667 17.6529 14.6667 17.1667V6.16669H16.5V4.33335H12.8333V2.50002C12.8333 2.01379 12.6402 1.54747 12.2964 1.20366C11.9525 0.859841 11.4862 0.666687 11 0.666687H5.5C5.01377 0.666687 4.54745 0.859841 4.20364 1.20366C3.85982 1.54747 3.66667 2.01379 3.66667 2.50002V4.33335H0V6.16669H1.83333V17.1667ZM5.5 2.50002H11V4.33335H5.5V2.50002ZM4.58333 6.16669H12.8333V17.1667H3.66667V6.16669H4.58333Z" fill="#5F0766"/>
<path d="M5.5 8.00002H7.33333V15.3333H5.5V8.00002ZM9.16667 8.00002H11V15.3333H9.16667V8.00002Z" fill="#5F0766"/>
</svg>
