<svg width="21" height="16" viewBox="0 0 21 16" fill="none" xmlns="http://www.w3.org/2000/svg">
<path d="M18.631 3.978C18.644 4.153 18.644 4.327 18.644 4.501C18.644 9.826 14.591 15.962 7.18405 15.962C4.90205 15.962 2.78205 15.301 0.998047 14.153C1.32205 14.19 1.63405 14.203 1.97105 14.203C3.78404 14.2074 5.54569 13.6011 6.97205 12.482C6.13147 12.4668 5.31662 12.1895 4.64128 11.6887C3.96595 11.188 3.46383 10.4889 3.20505 9.689C3.45405 9.726 3.70405 9.751 3.96605 9.751C4.32705 9.751 4.69005 9.701 5.02705 9.614C4.11481 9.42981 3.29452 8.93535 2.70567 8.21469C2.11681 7.49402 1.79574 6.59165 1.79705 5.661V5.611C2.33405 5.91 2.95705 6.097 3.61705 6.122C3.06414 5.75459 2.61077 5.25602 2.29739 4.67079C1.98401 4.08556 1.82036 3.43186 1.82105 2.768C1.82105 2.02 2.02005 1.334 2.36905 0.736001C3.38119 1.98102 4.64355 2.99956 6.07438 3.72566C7.50522 4.45176 9.07261 4.86922 10.675 4.951C10.613 4.651 10.575 4.34 10.575 4.028C10.5748 3.49896 10.6788 2.97506 10.8811 2.48624C11.0835 1.99742 11.3801 1.55327 11.7542 1.17919C12.1283 0.805102 12.5725 0.508411 13.0613 0.306078C13.5501 0.103746 14.074 -0.000262379 14.603 4.97063e-07C15.763 4.97063e-07 16.81 0.486 17.546 1.272C18.4478 1.09762 19.3126 0.768422 20.102 0.299C19.8015 1.22982 19.1718 2.0191 18.331 2.519C19.1308 2.42778 19.9125 2.21745 20.65 1.895C20.0992 2.6981 19.4166 3.40235 18.631 3.978Z" fill="black"/>
</svg>
