<svg width="16" height="15" viewBox="0 0 16 15" fill="none" xmlns="http://www.w3.org/2000/svg">
<path d="M8.00035 1.29877C7.12628 0.463574 5.98221 3.88076e-05 4.7948 0C4.16631 0.000679979 3.54416 0.13051 2.96415 0.382018C2.38413 0.633526 1.85771 1.00175 1.41517 1.46549C-0.47239 3.43531 -0.471588 6.51634 1.41677 8.47783L7.29843 14.5899C7.43481 14.8391 7.69793 15 8.00035 15C8.12453 14.9987 8.24669 14.9672 8.35703 14.908C8.46737 14.8488 8.56281 14.7635 8.63569 14.6591L14.5839 8.47783C16.4723 6.51551 16.4723 3.43531 14.5823 1.46215C14.14 0.999264 13.614 0.631791 13.0346 0.380863C12.4551 0.129935 11.8337 0.000499839 11.2059 0C10.0185 0.0002017 8.8745 0.463715 8.00035 1.29877ZM13.448 2.64088C14.7019 3.95048 14.7027 5.99617 13.4496 7.2991L8.00035 12.9618L2.55107 7.2991C1.29805 5.99617 1.29885 3.95048 2.54946 2.64422C3.15913 2.014 3.95651 1.66722 4.7948 1.66722C5.63309 1.66722 6.42725 2.014 7.03211 2.64255L7.4332 3.05935C7.50764 3.13683 7.59604 3.1983 7.69336 3.24024C7.79068 3.28218 7.895 3.30377 8.00035 3.30377C8.10571 3.30377 8.21003 3.28218 8.30734 3.24024C8.40466 3.1983 8.49307 3.13683 8.5675 3.05935L8.9686 2.64255C10.1815 1.38463 12.2367 1.38796 13.448 2.64088Z" fill="#5F0766"/>
</svg>
